<svg xmlns="http://www.w3.org/2000/svg" width="244" height="445" viewBox="0 0 244 445"><g clip-rule="evenodd"><path fill-rule="evenodd" fill="#F4C027" stroke="#000" stroke-width=".75" stroke-miterlimit="22.926" d="M196.24 95.69c1.18-2.56.23-6.14-.16-6.95-.2-.41.38-1.31.63-1.66 8.04-11.31 8.18-12.31 2.64-16.55-5-3.82-16.3-7.54-24.39-10.04-1.68-1.28-2.75-3.01-4.29-4.44 15.54 1.11 32.38 7.37 40.87 14.69 4.49 3.87-.97 11.68-7.65 23.57-4.13 2.97-6.07 4.34-7.65 1.38z"/><path fill-rule="evenodd" fill="#F4C027" stroke="#000" stroke-width=".75" stroke-miterlimit="22.926" d="M198.69 96.59c.35-1.02.6-2 .78-2.92.34-1.68.19-3.41-.37-5.04 1.85-2.6 3.93-5.43 5.44-8.25 1.07-2.01 1.9-4.24 1.27-6.53-.67-2.44-2.8-4.11-4.72-5.58-2.3-1.76-5.38-3.3-8.48-4.62-6.96-2.87-12.5-4.27-16.56-4.4l2.57 2.37c7.55 2.42 16.46 5.62 20.74 8.9 5.55 4.24 5.41 5.24-2.64 16.55-.25.35-.83 1.25-.63 1.66.39.81 1.1 4.54-.08 7.1.68 1.32 1.69.64 2.68.76z"/><path fill-rule="evenodd" fill="#F4C027" stroke="#000" stroke-width=".75" stroke-miterlimit="22.926" d="M130.72 46.25c-.07-1.43.03-1.19.24 1.02.23-.44.54-.65.91-.64.65.01 1.05 1 1.11 3.23l-.12 1.71c20.61-.45 32.82 2.65 35.97 8.61 2.59 4.91-1.82 13.03-8.47 22.31-.8 1.12-.78 1.03 0 1.95 1.13 1.34 2.34 3.6 1.43 5.59 4.03 2.21 8.83 2.74 13.01.92.69-1.83 2.2-2.7 3.42-3.53.25-.17 1.14-.61 1.23-.89 2.2-7.02 4.41-13.51 6.3-19.56 5.96-18.99-46.88-20.73-55.03-20.72z"/><path fill-rule="evenodd" fill="#F4C027" stroke="#000" stroke-width=".75" stroke-linejoin="round" stroke-miterlimit="22.926" d="M185.14 127.92c2.04-4.08 4.18-8.09 7.04-11.56-7.32 5.41-11.17 4.59-11.71-2.45-.43-.15-1.02-.15-1.61-.15-5.59 8.65-11.02 7.45-16.3-3.6-7.19 11.35-13.37 11.15-18.22-.69-8.3 10.35-15.29 10.38-20.97.22v-1.29c.32.14.1.18-.64.08l-.12-.24c-.22.04-.43.08-.61.12-.19-.03-.39-.07-.61-.12l-.12.24c-.75.1-.96.06-.64-.08v1.29c-5.68 10.16-12.67 10.13-20.97-.22-4.85 11.84-11.02 12.04-18.22.69-5.28 11.05-10.71 12.25-16.3 3.6-.59 0-1.17 0-1.61.15-.54 7.04-4.39 7.86-11.71 2.45 2.86 3.47 5 7.47 7.04 11.56 21.1-.87 42.12-1.97 63.14-3.07 21.02 1.1 42.04 2.19 63.14 3.07z"/><path fill-rule="evenodd" fill="#F4C027" stroke="#000" stroke-width=".75" stroke-linejoin="round" stroke-miterlimit="22.926" d="M193.79 110.93l-2.3-.38c-4.41 10.76-8.36 11.02-9.11.79.99-.35.6-2.06 1.71-1.38.58.36 1.33-.66.84-1.22-1.25-.92-2.36-.77-3.45.25-.51-1.63-1.78-2.4-3.35-1.71-.68.3-.45 1.52.24 1.45 1.1-.11.66 1.03 1 1.8-7.82 10.2-11.82 8.98-10.85-4.41-1.86-.38-4.03-.77-5.97-1.45-7.2 14.44-12.32 15.06-16.47 2.1.89-.66.64-2.32 1.93-1.79.73.3 1.35-.99.69-1.54-1.52-1.28-3.16-.84-4.26.79-.88-1.77-2.46-2.4-4.13-1.33-.72.46-.27 1.82.49 1.62 1.47-.39.81 1.53 1.92 2.19-3.18 12.18-19.24 13-16.61-5.03-1.47.05-2.81.1-4.13.15-1.33-.05-2.66-.1-4.13-.15 2.63 18.03-13.43 17.21-16.61 5.03 1.11-.66.45-2.58 1.92-2.19.76.21 1.21-1.15.49-1.62-1.66-1.07-3.24-.44-4.13 1.33-1.1-1.64-2.75-2.07-4.26-.79-.65.55-.04 1.84.69 1.54 1.3-.53 1.04 1.13 1.93 1.79-4.15 12.96-9.27 12.34-16.46-2.1-1.94.69-4.11 1.07-5.97 1.45.97 13.39-3.02 14.6-10.85 4.41.34-.77-.1-1.91 1-1.8.68.07.92-1.15.24-1.45-1.57-.69-2.84.07-3.35 1.71-1.09-1.02-2.2-1.16-3.45-.25-.48.56.26 1.58.84 1.22 1.12-.68.73 1.03 1.71 1.38-.74 10.23-4.7 9.97-9.11-.79l-2.3.38c-.07 2.53.81 5.22 2.37 7.19 6.61 8.38 11.53 6.48 11.71-2.91 8.66 10.14 15.2 8.86 16.38-1.84 7.28 13.49 18.97 7.03 19.21-1.15 3.21 11.89 20.98 11.81 22.12-1.86 1.14 13.67 18.91 13.75 22.12 1.86.24 8.18 11.93 14.64 19.21 1.15 1.17 10.7 7.72 11.98 16.38 1.84.18 9.39 5.1 11.29 11.71 2.91 1.59-1.98 2.47-4.67 2.4-7.19z"/><g fill-rule="evenodd"><path fill="#F4C027" stroke="#000" stroke-width=".803" stroke-miterlimit="22.926" d="M136.8 97.2c-.97-.61-1.17-.45-1.48-.85-.4-.51-.41-1.36-.28-2.17.51-3.27-1.46-2.81-3.67-1.37-1.11.72-2.22 2.4-3.17 3.28-.95.88-1.74.95-1.98 1.3-.03 1.25-.04 2.34-.03 2.83-.01.49 0 1.57.03 2.83.24.35 1.03.42 1.98 1.3.95.88 2.06 2.55 3.17 3.28 2.21 1.45 4.18 1.9 3.67-1.37-.13-.81-.12-1.66.28-2.17.31-.4.51-.24 1.48-.85.63-.4 1.11-.87 1.42-1.39s.14-1.07.14-1.63c0-.56.17-1.11-.14-1.63s-.79-.99-1.42-1.39z"/><path d="M126.13 100.71l.08.55c2.34.29 4.27 1.23 5.96 2.69-1.12-1.64-3.52-2.87-6.04-3.24zM126.13 99.72l.08-.55c2.34-.29 4.27-1.23 5.96-2.69-1.12 1.65-3.52 2.88-6.04 3.24z"/><path fill="#F4C027" stroke="#000" stroke-width=".75" stroke-miterlimit="22.926" d="M135.08 92.7c-.71.29-1.49.6-2.14 1.23-1 .96-.35 2.56.94 4.1.41.49.6 1.35.6 2.2 0 .86-.21 1.71-.6 2.18-1.29 1.54-1.93 3.14-.94 4.1.66.63 1.43.94 2.14 1.23.07-.37.06-.86-.04-1.49-.13-.81-.12-1.66.28-2.17.31-.4.51-.24 1.48-.85.63-.4 1.11-.87 1.42-1.39s.14-1.07.14-1.63c0-.56.17-1.11-.14-1.63s-.79-.99-1.42-1.39c-.97-.61-1.17-.45-1.48-.85-.4-.51-.41-1.36-.28-2.17.1-.61.1-1.1.04-1.47z"/></g><path fill-rule="evenodd" fill="#F4C027" stroke="#000" stroke-width=".75" stroke-miterlimit="22.926" d="M47.76 95.69c-1.18-2.56-.23-6.14.16-6.95.2-.41-.38-1.31-.64-1.66-8.04-11.31-8.18-12.31-2.64-16.55 5-3.82 16.31-7.54 24.39-10.04 1.68-1.28 2.75-3.01 4.29-4.44-15.54 1.11-32.38 7.37-40.87 14.69-4.49 3.87.97 11.68 7.65 23.57 4.14 2.97 6.08 4.34 7.66 1.38z"/><path fill-rule="evenodd" fill="#F4C027" stroke="#000" stroke-width=".75" stroke-miterlimit="22.926" d="M45.31 96.59c-.35-1.02-.6-2-.78-2.92-.34-1.68-.19-3.41.37-5.04-1.85-2.6-3.93-5.43-5.44-8.25-1.07-2.01-1.9-4.24-1.27-6.53.67-2.44 2.8-4.11 4.72-5.58 2.3-1.76 5.38-3.3 8.48-4.62 6.96-2.87 12.5-4.27 16.56-4.4l-2.58 2.37c-7.55 2.42-16.46 5.62-20.74 8.9-5.55 4.24-5.41 5.24 2.64 16.55.25.35.83 1.25.64 1.66-.39.81-1.1 4.54.08 7.1-.68 1.32-1.69.64-2.68.76z"/><path fill-rule="evenodd" fill="#F4C027" stroke="#000" stroke-width=".75" stroke-miterlimit="22.926" d="M113.27 46.25c.07-1.43-.03-1.19-.24 1.02-.23-.44-.54-.65-.91-.64-.65.01-1.05 1-1.11 3.23l.12 1.71c-20.61-.45-32.82 2.65-35.97 8.61-2.59 4.91 1.81 13.03 8.47 22.31.8 1.12.78 1.03 0 1.95-1.13 1.34-2.34 3.6-1.43 5.59-4.03 2.21-8.83 2.74-13.01.92-.69-1.83-2.2-2.7-3.42-3.53-.25-.17-1.14-.61-1.23-.89-2.2-7.02-4.41-13.51-6.3-19.56-5.95-18.99 46.89-20.73 55.03-20.72zM116.86 124.81l-.73 20.57c20.41.57 44.58 1.49 64.99 2.06l4.07-19.21c-49.07-3.09-71.68-4.07-68.33-3.42z"/><path fill-rule="evenodd" fill="#F4C027" stroke="#000" stroke-width=".75" stroke-miterlimit="22.926" d="M116.86 124.81v.11c-10.9.48-30.21 1.56-58.04 3.32l4.07 19.21c18.48-.52 40.05-1.32 59.11-1.89 19.07.57 40.63 1.38 59.12 1.89l4.07-19.21c-27.83-1.76-47.14-2.84-58.04-3.32v-.11c1.1-.21-.61-.25-5.14-.1-4.55-.15-6.25-.12-5.15.1z"/><path fill-rule="evenodd" fill="#F4C027" stroke="#000" stroke-width=".75" stroke-miterlimit="22.926" d="M122 127.09h-5.25l-.75.01-.66.01h-.14l-.55.01c-.55.01-1.09.01-1.63.02h-.28l-.7.01h-.5l-.72.01h-.03l-.74.01h-.24l-.5.01h-.16l-.58.01-.74.02h-.03l-.71.02-.3.01h-.02c-.88.02-1.76.04-2.64.07l-.36.01-1 .03h-.11l-.89.03-.58.02-.42.01h-.12l-.89.03h-.05l-.74.03h-.03l-.7.03-.48.02-.99.04h-.01c-1.31.05-2.61.11-3.91.17l-.19.01c-1.92.09-3.83.19-5.73.29l-.11.01-.28.02c-3.81.22-7.6.47-11.37.75l-.14.01h-.05c-5.52.42-10.99.91-16.41 1.47-3.08.29-3.67-3.35 0-3.68 5.42-.56 10.89-1.05 16.41-1.46h.05c7.58-.57 15.25-1.01 23-1.31l.64-.02h.1l.21-.01.74-.03h.05c3.17-.11 6.36-.2 9.56-.26l.5-.01h.03l.85-.02h.14l.72-.01h.29l.45-.01.56-.01h.44c.66-.01 1.31-.02 1.97-.02l.63-.01h.12l.75-.01c.73-.01 1.45-.01 2.18-.01h6.1c.73 0 1.46.01 2.18.01l.75.01h.12l.63.01c.66.01 1.32.02 1.97.02h.44l.56.01.45.01h.29l.72.01h.14l.85.02h.03l.5.01c3.2.06 6.38.15 9.56.26h.05l.74.03.21.01h.1l.64.02c7.75.3 15.42.73 23 1.31h.05c5.52.42 10.99.91 16.41 1.46 3.67.34 3.08 3.97 0 3.68-5.42-.56-10.89-1.05-16.41-1.47h-.05l-.14-.01c-3.77-.28-7.56-.53-11.37-.75l-.28-.02-.11-.01c-1.9-.11-3.81-.21-5.73-.29l-.19-.01c-1.3-.06-2.61-.12-3.91-.17h-.01l-.99-.04-.48-.02-.7-.03h-.03l-.74-.03h-.05l-.89-.03h-.12l-.42-.01-.59-.02-.89-.03h-.11l-1-.03-.36-.01c-.88-.03-1.76-.05-2.64-.07h-.02l-.3-.01-.71-.02h-.03l-.74-.02-.58-.01h-.16l-.5-.01h-.24l-.74-.01h-.03l-.72-.01h-.5l-.7-.01h-.28c-.54-.01-1.09-.01-1.63-.02l-.55-.01h-.14l-.66-.01-.75-.01H122z"/><path fill-rule="evenodd" fill="#FFF" stroke="#000" stroke-width=".75" stroke-miterlimit="22.926" d="M73.91 90.04c2.19 0 3.97-1.78 3.97-3.97 0-2.19-1.78-3.97-3.97-3.97-2.19 0-3.97 1.78-3.97 3.97.01 2.19 1.79 3.97 3.97 3.97zM40.11 97.8c2.03 0 3.68-1.66 3.68-3.69s-1.66-3.69-3.68-3.69-3.69 1.66-3.69 3.69 1.66 3.69 3.69 3.69zM36.59 91.06c2.03 0 3.68-1.66 3.68-3.69 0-2.03-1.66-3.69-3.68-3.69-2.03 0-3.69 1.66-3.69 3.69 0 2.04 1.66 3.69 3.69 3.69zM33.27 84.25c2.03 0 3.68-1.66 3.68-3.69s-1.66-3.69-3.68-3.69c-2.03 0-3.69 1.66-3.69 3.69s1.66 3.69 3.69 3.69z"/><path fill-rule="evenodd" fill="#F4C027" stroke="#000" stroke-width=".75" stroke-miterlimit="22.926" d="M122 105.04c2.65 0 4.82-2.16 4.82-4.82 0-2.65-2.17-4.82-4.82-4.82-2.65 0-4.82 2.17-4.82 4.82 0 2.65 2.17 4.82 4.82 4.82z"/><g fill-rule="evenodd" stroke="#000" stroke-miterlimit="22.926"><path fill="#F4C027" stroke-width=".752" d="M98.39 89.52c2.13-.14 1.6 3.65 1.18 4.49-.55 1.1-1.06 1.14-1.75.12-.53-.78-1.56-4.46.57-4.61z"/><path fill="#FFF" stroke-width=".75" d="M98.53 91.57c5-.34 3.77 8.56 2.78 10.55-1.29 2.59-2.49 2.67-4.11.28-1.25-1.83-3.67-10.49 1.33-10.83z"/></g><g fill-rule="evenodd" stroke="#000" stroke-miterlimit="22.926"><path fill="#F4C027" stroke-width=".752" d="M58.17 94.88c2.03-.65 2.43 3.16 2.22 4.08-.27 1.2-.76 1.36-1.67.53-.7-.63-2.58-3.96-.55-4.61z"/><path fill="#FFF" stroke-width=".75" d="M58.8 96.84c4.78-1.52 5.7 7.42 5.21 9.58-.63 2.82-1.78 3.19-3.93 1.25-1.65-1.48-6.06-9.31-1.28-10.83z"/></g><path fill-rule="evenodd" fill="#F4C027" stroke="#000" stroke-width=".75" stroke-linejoin="round" stroke-miterlimit="22.926" d="M110.82 49.7c-10.74-.97-21.72.12-32.6 4.44-9.16 3.64-8.27 14.26 2.91 29.01-1.01 1.87-1.59 4.19-1.68 6.87 1.18-.06 2.01-.03 3.05-.06-.81-1.79.1-3.97 1.12-5.52.67-1.01.8-.83 0-1.95-6.65-9.28-11.06-17.4-8.47-22.31 3.15-5.96 15.37-9.07 35.97-8.61-.04-.54-.08-1.09-.11-1.65l-.19-.22z"/><path fill-rule="evenodd" fill="#FFF" stroke="#000" stroke-width=".75" stroke-miterlimit="22.926" d="M58.71 60.38c2.11 0 3.83-1.72 3.83-3.83s-1.72-3.83-3.83-3.83c-2.11 0-3.83 1.72-3.83 3.83s1.72 3.83 3.83 3.83zM66.21 57.93c2.11 0 3.83-1.72 3.83-3.83 0-2.11-1.72-3.83-3.83-3.83-2.11 0-3.83 1.72-3.83 3.83 0 2.11 1.72 3.83 3.83 3.83z"/><path fill-rule="evenodd" fill="#F4C027" stroke="#000" stroke-width=".75" stroke-miterlimit="22.926" d="M67.2 53.54c.38.51.76 1.01 1.15 1.52-6.05 3.32-8.55 6.81-7.96 10.33.1.6 1.94 7.04 6.05 19.52 2.81 1.94 4.9 3.67 6.28 5.2-.15.17.44.72.26.87.42 1.91-1.73 1.52-3.17 1.05-.69-1.83-2.81-3.77-4.03-4.61-.25-.17-1.14-.61-1.23-.89-2.2-7.02-4.41-13.51-6.3-19.56-1.92-6.08 2.21-10.38 8.95-13.43z"/><path fill-rule="evenodd" fill="#F4C027" stroke="#000" stroke-width=".75" stroke-linejoin="round" stroke-miterlimit="22.926" d="M43.34 98.63l-.23 1.22c-1.76.41-3.27.51-4.52.31 2.1-2.04 3.66-2.47 4.75-1.53z"/><path fill-rule="evenodd" fill="#F4C027" stroke="#000" stroke-width=".76" stroke-miterlimit="22.926" d="M43.15 95.83c1.1.24 1.21.43 1.69.51.62.11 1.47.06 2.06-.45 2.39-1.44 2.44 1.15 1.51 3.08-.67 1.4-.33 2.99.32 4.19.76 1.42.6 2.07.06 2.45-.37.24-.73.47-1.04.67-.64.76-1.13.63-1.22-.36-2.39-.98-3.18-3.27-3.89-5.29-1.06-2.95-4.86-3.65.51-4.8z"/><path fill-rule="evenodd" fill="#F4C027" stroke="#000" stroke-width=".818" stroke-miterlimit="22.926" d="M44.09 95.93c2.08.74 2.31-.41 3.71-.35-.55 3.18-1.11 4.83-4.43 3.12-1.83-.94-4.18.44-4.62 1.46-.16.37-1.23-.4-1.62-1.25-1.62-3.57 4.18-3.97 6.96-2.98z"/><path fill-rule="evenodd" fill="#FFF" stroke="#000" stroke-width=".75" stroke-miterlimit="22.926" d="M107.48 49.1c2.1 0 3.81-1.71 3.81-3.81s-1.71-3.81-3.81-3.81-3.81 1.71-3.81 3.81 1.71 3.81 3.81 3.81zM99.67 49.1c2.1 0 3.81-1.71 3.81-3.81s-1.71-3.81-3.81-3.81-3.81 1.71-3.81 3.81 1.71 3.81 3.81 3.81zM91.86 49.71c2.1 0 3.81-1.71 3.81-3.81s-1.71-3.81-3.81-3.81-3.81 1.71-3.81 3.81 1.71 3.81 3.81 3.81zM84.67 51.09c2.1 0 3.81-1.71 3.81-3.81s-1.71-3.81-3.81-3.81-3.81 1.71-3.81 3.81 1.71 3.81 3.81 3.81zM37.33 70.75c2.11 0 3.83-1.72 3.83-3.83s-1.72-3.83-3.83-3.83c-2.11 0-3.83 1.72-3.83 3.83s1.72 3.83 3.83 3.83zM43.89 66.62c2.11 0 3.83-1.72 3.83-3.83s-1.72-3.83-3.83-3.83c-2.11 0-3.83 1.72-3.83 3.83s1.72 3.83 3.83 3.83zM51.35 63.12c2.11 0 3.83-1.72 3.83-3.83s-1.72-3.83-3.83-3.83c-2.11 0-3.83 1.72-3.83 3.83s1.72 3.83 3.83 3.83zM32.26 76.97c2.11 0 3.83-1.72 3.83-3.83s-1.72-3.83-3.83-3.83c-2.11 0-3.83 1.72-3.83 3.83s1.72 3.83 3.83 3.83z"/><path fill-rule="evenodd" fill="#F4C027" stroke="#000" stroke-width="1.504" stroke-miterlimit="22.926" d="M107.83 135.32l14.17-7.09 14.17 7.09-14.17 7.09z"/><path fill-rule="evenodd" fill="#00498F" stroke="#000" stroke-width=".75" stroke-miterlimit="22.926" d="M122 139.48c3.51 0 6.38-1.91 6.38-4.25s-2.87-4.25-6.38-4.25-6.38 1.91-6.38 4.25 2.87 4.25 6.38 4.25z"/><path fill-rule="evenodd" fill="#F4C027" stroke="#000" stroke-width="1.53" stroke-miterlimit="22.926" d="M76.32 137.1l13.71-7.93 14.58 6.2-13.71 7.94z"/><ellipse transform="rotate(-93.497 90.46 136.15)" fill-rule="evenodd" fill="#D93A43" stroke="#000" stroke-width=".75" stroke-miterlimit="22.926" cx="90.46" cy="136.14" rx="4.25" ry="6.38"/><path fill-rule="evenodd" fill="#F4C027" stroke="#000" stroke-width=".75" stroke-miterlimit="22.926" d="M59.82 131.41l14.82 5.61-12.23 8.18c-3.17-1.05-5.69-11.83-2.59-13.79z"/><path fill-rule="evenodd" fill="#00498F" stroke="#000" stroke-width=".75" stroke-miterlimit="22.926" d="M60.1 134.13c3.5-.36 6.54 1.25 6.78 3.58.24 2.34-2.41 4.52-5.91 4.88-2.28.23-3.69-1.76-3.94-3.87-.25-2.11.67-4.34 3.07-4.59z"/><path fill-rule="evenodd" fill="#FFF" stroke="#000" stroke-width=".75" stroke-miterlimit="22.926" d="M106.62 141.92c1.1 0 1.99-.89 1.99-1.99s-.89-1.99-1.99-1.99-1.99.89-1.99 1.99.89 1.99 1.99 1.99zM76.23 143.61c1.1 0 1.99-.89 1.99-1.99s-.89-1.99-1.99-1.99-1.99.89-1.99 1.99c0 1.09.9 1.99 1.99 1.99zM75.16 134.42c1.1 0 1.99-.89 1.99-1.99s-.89-1.99-1.99-1.99-1.99.89-1.99 1.99.89 1.99 1.99 1.99zM106.54 133.12c1.1 0 1.99-.89 1.99-1.99s-.89-1.99-1.99-1.99-1.99.89-1.99 1.99.89 1.99 1.99 1.99z"/><path fill-rule="evenodd" fill="#F4C027" stroke="#000" stroke-width=".771" stroke-miterlimit="22.926" d="M52.69 111.33c1.51-.46 3.86 2.87 4.42 2.81.74-1.9-.77-6.45-3.45-10.06-1.82-.59-1.98-1.76-2.36-4.47-.11-.81-1.67-.25-1.7 1.13-.03 1.48-.15 2.3.19 3.56.13.5.06.97-.5 1.43 2.84 1.12 3.53 2.49 3.4 5.6z"/><path fill-rule="evenodd" fill="#F4C027" stroke="#000" stroke-width=".763" stroke-linejoin="round" stroke-miterlimit="22.926" d="M51.34 99.64c-.26.62-.34 1.14-.4 2.08-.05.72.22 1.4.68 2 .46.6 1.13 1.13 1.88 1.56.46.27.99 1 1.41 1.84.42.83.72 1.78.74 2.45.06 2.21.49 4.15 1.51 4.53.66.25.93.21 1.44.09-.15-.4-.09-.96-.45-1.51-.46-.72-.86-1.54-.9-2.26-.03-.56-.3-.93-.08-2.04.14-.71.61-.98.52-1.64-.16-1.28-1.17-3.72-2.65-3.72-1.46 0-2.14-.16-2.9-2.08-.25-.65-.58-.97-.8-1.3z"/><g fill-rule="evenodd" stroke="#000" stroke-miterlimit="22.926"><path fill="#F4C027" stroke-width=".755" d="M45.84 104.95c.4-.3.88-.53 1.33-.7.77-.3 1.58-.34 2.38-.11 3.5 1.05 5.03 7.22 1.2 8.7-.75.09-1.45-.59-2.13-2.08-.8-1.97-1.65-3.34-2.56-4.17-.56-.7-.58-1.29-.22-1.64z"/><path fill="#F4C027" stroke-width=".755" d="M47.61 105.36c3.36-1.3 5.83 5.09 2.69 6.3-1.69.65-1.85-1.44-2.17-2.61-.44-1.57-3.75-2.44-.52-3.69z"/><path fill="#00498F" stroke-width=".75" d="M47.96 106.3c1.64-.63 3.89 3.18 1.84 4.04-1.38.58-2.48-.18-2.92-1.33s-.07-2.26 1.08-2.71z"/></g><path fill-rule="evenodd" fill="#F4C027" stroke="#000" stroke-width="1.53" stroke-miterlimit="22.926" d="M167.68 137.1l-13.71-7.93-14.58 6.2 13.71 7.94z"/><ellipse transform="rotate(-86.503 153.548 136.15)" fill-rule="evenodd" fill="#D93A43" stroke="#000" stroke-width=".75" stroke-miterlimit="22.926" cx="153.54" cy="136.14" rx="4.25" ry="6.38"/><path fill-rule="evenodd" fill="#F4C027" stroke="#000" stroke-width=".75" stroke-miterlimit="22.926" d="M184.18 131.41l-14.82 5.61 12.23 8.18c3.17-1.05 5.69-11.83 2.59-13.79z"/><path fill-rule="evenodd" fill="#00498F" stroke="#000" stroke-width=".75" stroke-miterlimit="22.926" d="M183.9 134.13c-3.5-.36-6.54 1.25-6.78 3.58-.24 2.34 2.41 4.52 5.91 4.88 2.28.23 3.69-1.76 3.94-3.87.25-2.11-.67-4.34-3.07-4.59z"/><path fill-rule="evenodd" fill="#FFF" stroke="#000" stroke-width=".75" stroke-miterlimit="22.926" d="M137.38 141.92c1.1 0 1.99-.89 1.99-1.99s-.89-1.99-1.99-1.99-1.99.89-1.99 1.99.9 1.99 1.99 1.99zM167.77 143.61c1.1 0 1.99-.89 1.99-1.99s-.89-1.99-1.99-1.99-1.99.89-1.99 1.99c0 1.09.89 1.99 1.99 1.99zM168.84 134.42c1.1 0 1.99-.89 1.99-1.99s-.89-1.99-1.99-1.99-1.99.89-1.99 1.99.89 1.99 1.99 1.99zM137.46 133.12c1.1 0 1.99-.89 1.99-1.99s-.89-1.99-1.99-1.99-1.99.89-1.99 1.99.89 1.99 1.99 1.99zM70.85 83.55c2.19 0 3.97-1.78 3.97-3.97 0-2.19-1.78-3.97-3.97-3.97-2.19 0-3.97 1.78-3.97 3.97 0 2.19 1.79 3.97 3.97 3.97z"/><path fill-rule="evenodd" fill="#FFF" stroke="#000" stroke-width=".75" stroke-miterlimit="22.926" d="M67.96 76.96c2.19 0 3.97-1.78 3.97-3.97 0-2.19-1.78-3.97-3.97-3.97-2.19 0-3.97 1.78-3.97 3.97 0 2.18 1.78 3.97 3.97 3.97zM77.46 53.45c2.11 0 3.83-1.72 3.83-3.83s-1.72-3.83-3.83-3.83c-2.11 0-3.83 1.72-3.83 3.83s1.72 3.83 3.83 3.83z"/><path fill-rule="evenodd" fill="#FFF" stroke="#000" stroke-width=".75" stroke-miterlimit="22.926" d="M71.03 56.65c2.19 0 3.97-1.78 3.97-3.97 0-2.19-1.78-3.97-3.97-3.97-2.19 0-3.97 1.78-3.97 3.97 0 2.19 1.78 3.97 3.97 3.97z"/><path fill-rule="evenodd" fill="#FFF" stroke="#000" stroke-width=".75" stroke-miterlimit="22.926" d="M66.29 62.26c2.19 0 3.97-1.78 3.97-3.97 0-2.19-1.78-3.97-3.97-3.97s-3.97 1.78-3.97 3.97c0 2.19 1.79 3.97 3.97 3.97z"/><path fill-rule="evenodd" fill="#FFF" stroke="#000" stroke-width=".75" stroke-miterlimit="22.926" d="M65.53 69.32c2.19 0 3.97-1.78 3.97-3.97s-1.78-3.97-3.97-3.97c-2.19 0-3.97 1.78-3.97 3.97s1.78 3.97 3.97 3.97z"/><path fill-rule="evenodd" fill="#F4C027" stroke="#000" stroke-width=".737" stroke-miterlimit="22.926" d="M123.94 16.99c1.05-.03 1.89-.89 1.89-1.94 0-1.05-.84-1.91-1.89-1.94-.01-1.07-.87-1.93-1.94-1.93s-1.93.86-1.94 1.93c-1.05.03-1.89.88-1.89 1.94 0 1.05.84 1.91 1.89 1.94v3.98h-3.42c-.01-1.07-.87-1.93-1.94-1.93-1.05 0-1.91.84-1.94 1.89-1.07.01-1.93.87-1.93 1.94 0 1.07.86 1.93 1.93 1.94.03 1.05.88 1.89 1.94 1.89 1.04 0 1.89-.82 1.94-1.84h3.42v13.22h3.88V24.85h3.42c.05 1.03.9 1.84 1.94 1.84 1.05 0 1.91-.84 1.94-1.89 1.07-.01 1.93-.87 1.93-1.94 0-1.07-.86-1.93-1.93-1.94-.03-1.05-.88-1.89-1.94-1.89-1.07 0-1.93.86-1.94 1.93h-3.42v-3.97z"/><path fill-rule="evenodd" fill="#00498F" stroke="#000" stroke-width=".75" stroke-miterlimit="22.926" d="M122 50.87c5.89 0 10.7-4.81 10.7-10.7s-4.81-10.7-10.7-10.7-10.7 4.81-10.7 10.7 4.81 10.7 10.7 10.7z"/><path fill-rule="evenodd" fill="#F4C027" stroke="#000" stroke-width=".75" stroke-miterlimit="22.926" d="M122 29.47c.66 0 1.31.06 1.94.18v8.42h-3.88v-8.42c.63-.12 1.28-.18 1.94-.18z"/><path fill-rule="evenodd" fill="#F4C027" stroke="#000" stroke-width=".75" stroke-miterlimit="22.926" d="M132.48 38c.14.7.22 1.43.22 2.17 0 .51-.04 1.02-.11 1.52-3.52-.12-7.04-.2-10.59-.2s-7.08.08-10.59.2c-.07-.5-.11-1-.11-1.52 0-.74.08-1.47.22-2.17 3.48-.12 6.97-.2 10.48-.2 3.51-.01 7 .08 10.48.2z"/><path fill-rule="evenodd" fill="#F4C027" stroke="#000" stroke-width=".75" stroke-linejoin="round" stroke-miterlimit="22.926" d="M113.7 46.86c-2.27-1.4-2.66.76-2.6 2.94.22 8.19 1.79 15.98-.42 26-.88 4.01-2.3 6.27-.92 7.04 3.53 1.97 5.15 3.78 4.59 4.75 1.04 1.99 3.65 1.61 7.65.97 4 .64 6.61 1.02 7.65-.97-.56-.97 1.06-2.77 4.59-4.75 1.39-.77-.04-3.03-.92-7.04-2.21-10.02-.64-17.81-.42-26 .06-2.17-.34-4.33-2.6-2.94-4.46 2.75-12.09 2.78-16.6 0z"/><path fill-rule="evenodd" fill="#FFF" stroke="#000" stroke-width=".75" stroke-miterlimit="22.926" d="M122 86.17c2.34 0 4.25-1.91 4.25-4.25s-1.91-4.25-4.25-4.25-4.25 1.91-4.25 4.25 1.91 4.25 4.25 4.25z"/><path fill-rule="evenodd" fill="#FFF" stroke="#000" stroke-width=".75" stroke-miterlimit="22.926" d="M122 78.8c2.34 0 4.25-1.91 4.25-4.25s-1.91-4.25-4.25-4.25-4.25 1.91-4.25 4.25 1.91 4.25 4.25 4.25z"/><path fill-rule="evenodd" fill="#FFF" stroke="#000" stroke-width=".75" stroke-miterlimit="22.926" d="M122 71.71c2.34 0 4.25-1.91 4.25-4.25s-1.91-4.25-4.25-4.25-4.25 1.91-4.25 4.25 1.91 4.25 4.25 4.25zM122 51.59c2.34 0 4.25-1.91 4.25-4.25s-1.91-4.25-4.25-4.25-4.25 1.91-4.25 4.25 1.91 4.25 4.25 4.25z"/><path fill-rule="evenodd" fill="#FFF" stroke="#000" stroke-width=".75" stroke-miterlimit="22.926" d="M122 57.82c2.34 0 4.25-1.91 4.25-4.25s-1.91-4.25-4.25-4.25-4.25 1.91-4.25 4.25 1.91 4.25 4.25 4.25z"/><path fill-rule="evenodd" fill="#FFF" stroke="#000" stroke-width=".75" stroke-miterlimit="22.926" d="M122 64.63c2.34 0 4.25-1.91 4.25-4.25s-1.91-4.25-4.25-4.25-4.25 1.91-4.25 4.25 1.91 4.25 4.25 4.25z"/><path fill-rule="evenodd" fill="#F4C027" stroke="#000" stroke-width=".75" stroke-linejoin="round" stroke-miterlimit="22.926" d="M117.18 86.97c-1.68-3.11-3.47-5.1-5.36-5.97 2.6-8.14 3.21-18.65 1.68-31.61-.15-1.94-.64-2.77-1.38-2.76-.65.01-1.05 1-1.11 3.23.47 7.13 1.05 13.37.73 18.66-.29 4.73-1.41 8.66-2.64 13.09-.17.61.27 1.1 2.41 2.3 1.58.89 2.58 1.99 2.91 3.14.46-.18.75-.13.92-.08 1.59.45 2.26.33 1.84 0zM126.82 86.97c1.68-3.11 3.47-5.1 5.36-5.97-2.6-8.14-3.21-18.65-1.68-31.61.15-1.94.64-2.77 1.38-2.76.65.01 1.05 1 1.11 3.23-.47 7.13-1.06 13.37-.73 18.66.29 4.73 1.41 8.66 2.64 13.09.17.61-.27 1.1-2.41 2.3-1.58.89-2.58 1.99-2.91 3.14-.46-.18-.75-.13-.92-.08-1.59.45-2.26.33-1.84 0z"/><g fill-rule="evenodd"><path fill="#F4C027" stroke="#000" stroke-width=".803" stroke-miterlimit="22.926" d="M125.02 85.42c.61.98.45 1.17.85 1.48.51.4 1.36.41 2.17.28 3.27-.51 2.81 1.46 1.37 3.67-.72 1.11-2.4 2.22-3.28 3.17-.88.95-.95 1.74-1.3 1.97-1.25.03-2.34.04-2.83.03-.49.01-1.57 0-2.83-.03-.35-.24-.42-1.02-1.3-1.97-.88-.95-2.55-2.06-3.28-3.17-1.45-2.21-1.9-4.18 1.37-3.67.81.13 1.66.12 2.17-.28.4-.31.24-.5.85-1.48.4-.63.87-1.11 1.39-1.42.52-.32 1.07-.14 1.63-.14s1.11-.17 1.63.14c.52.31.99.79 1.39 1.42z"/><path d="M121.5 96.09l-.55-.08c-.29-2.34-1.23-4.27-2.7-5.96 1.66 1.12 2.89 3.51 3.25 6.04zM122.5 96.09l.55-.08c.29-2.34 1.23-4.27 2.7-5.96-1.66 1.12-2.89 3.51-3.25 6.04z"/><path fill="#F4C027" stroke="#000" stroke-width=".75" stroke-miterlimit="22.926" d="M129.52 87.14c-.29.71-.6 1.49-1.23 2.14-.96 1-2.55.35-4.1-.94-.49-.41-1.35-.6-2.2-.6-.86 0-1.71.21-2.18.6-1.54 1.29-3.14 1.93-4.1.94-.63-.66-.94-1.43-1.23-2.14.37-.07.86-.06 1.49.04.81.13 1.66.12 2.17-.28.4-.31.24-.5.85-1.48.4-.63.87-1.11 1.39-1.42.52-.32 1.07-.14 1.63-.14s1.11-.17 1.63.14c.52.32.99.79 1.39 1.42.61.98.45 1.17.85 1.48.51.4 1.36.41 2.17.28.61-.1 1.1-.1 1.47-.04z"/></g><g fill-rule="evenodd"><path fill="#F4C027" stroke="#000" stroke-width=".803" stroke-miterlimit="22.926" d="M107.2 97.2c.98-.61 1.17-.45 1.48-.85.4-.51.41-1.36.28-2.17-.51-3.27 1.46-2.81 3.67-1.37 1.11.72 2.22 2.4 3.17 3.28.95.88 1.74.95 1.97 1.3.03 1.25.04 2.34.03 2.83.01.49 0 1.57-.03 2.83-.24.35-1.02.42-1.97 1.3-.95.88-2.06 2.55-3.17 3.28-2.21 1.45-4.18 1.9-3.67-1.37.13-.81.12-1.66-.28-2.17-.31-.4-.5-.24-1.48-.85-.63-.4-1.11-.87-1.42-1.39s-.14-1.07-.14-1.63c0-.56-.17-1.11.14-1.63s.79-.99 1.42-1.39z"/><path d="M117.87 100.71l-.08.55c-2.34.29-4.27 1.23-5.96 2.69 1.12-1.64 3.51-2.87 6.04-3.24zM117.87 99.72l-.08-.55c-2.34-.29-4.27-1.23-5.96-2.69 1.12 1.65 3.51 2.88 6.04 3.24z"/><path fill="#F4C027" stroke="#000" stroke-width=".75" stroke-miterlimit="22.926" d="M108.92 92.7c.71.29 1.49.6 2.14 1.23 1 .96.35 2.56-.94 4.1-.41.49-.6 1.35-.6 2.2 0 .86.21 1.71.6 2.18 1.29 1.54 1.93 3.14.94 4.1-.66.63-1.43.94-2.14 1.23-.07-.37-.06-.86.04-1.49.13-.81.12-1.66-.28-2.17-.31-.4-.5-.24-1.48-.85-.63-.4-1.11-.87-1.42-1.39s-.14-1.07-.14-1.63c0-.56-.17-1.11.14-1.63s.79-.99 1.42-1.39c.98-.61 1.17-.45 1.48-.85.4-.51.41-1.36.28-2.17-.1-.61-.1-1.1-.04-1.47z"/></g><g fill-rule="evenodd"><path fill="#F4C027" stroke="#000" stroke-width=".803" stroke-miterlimit="22.926" d="M136.8 103.24c-.97.61-1.17.45-1.48.85-.4.52-.41 1.36-.28 2.17.51 3.27-1.46 2.81-3.67 1.37-1.11-.72-2.22-2.4-3.17-3.28-.95-.88-1.74-.95-1.98-1.3-.03-1.25-.04-2.34-.03-2.83-.01-.49 0-1.57.03-2.83.24-.35 1.03-.42 1.98-1.3.95-.88 2.06-2.55 3.17-3.28 2.21-1.45 4.18-1.9 3.67 1.37-.13.81-.12 1.66.28 2.17.31.4.51.24 1.48.85.63.4 1.11.87 1.42 1.39.32.52.14 1.07.14 1.63 0 .56.17 1.11-.14 1.63s-.79.99-1.42 1.39z"/><path d="M126.13 99.72l.08-.55c2.34-.29 4.27-1.23 5.96-2.69-1.12 1.65-3.52 2.88-6.04 3.24zM126.13 100.71l.08.55c2.34.29 4.27 1.23 5.96 2.69-1.12-1.64-3.52-2.87-6.04-3.24z"/><path fill="#F4C027" stroke="#000" stroke-width=".75" stroke-miterlimit="22.926" d="M135.08 107.74c-.71-.29-1.49-.6-2.14-1.23-1-.96-.35-2.56.94-4.1.41-.49.6-1.35.6-2.2 0-.86-.21-1.71-.6-2.18-1.29-1.54-1.93-3.14-.94-4.1.66-.63 1.43-.94 2.14-1.23.07.37.06.86-.04 1.49-.13.81-.12 1.66.28 2.17.31.4.51.24 1.48.85.63.4 1.11.87 1.42 1.39.32.52.14 1.07.14 1.63 0 .56.17 1.11-.14 1.63s-.79.99-1.42 1.39c-.97.61-1.17.45-1.48.85-.4.52-.41 1.36-.28 2.17.1.61.1 1.1.04 1.47z"/></g><g fill-rule="evenodd" stroke="#000" stroke-width=".75" stroke-miterlimit="22.926"><path fill="#F4C027" d="M122 105.04c2.65 0 4.82-2.16 4.82-4.82 0-2.65-2.17-4.82-4.82-4.82-2.65 0-4.82 2.17-4.82 4.82 0 2.65 2.17 4.82 4.82 4.82z"/><path fill="#F4C027" d="M122 103.76c1.95 0 3.54-1.59 3.54-3.54s-1.59-3.54-3.54-3.54-3.54 1.59-3.54 3.54 1.59 3.54 3.54 3.54z"/><path fill="#00498F" d="M122 102.45c1.23 0 2.23-1 2.23-2.23s-1-2.23-2.23-2.23-2.23 1-2.23 2.23 1 2.23 2.23 2.23z"/></g><path fill-rule="evenodd" d="M46.49 104.44l.42-.18c-.96-1.33-1.17-2.6-.8-3.88-.81 1.01-.61 2.61.38 4.06z"/><path fill-rule="evenodd" fill="#F4C027" stroke="#000" stroke-width=".75" stroke-miterlimit="22.926" d="M77.5 88.14c.83 1.04.73 1.29 1.18 1.59.59.39 1.38.25 2.12-.03 3.03-1.15 3.03 1.24 2.15 3.98-.43 1.33-1.72 2.77-2.29 3.89-.57 1.11-.44 1.93-.7 2.22-1.1.18-2.04.31-2.47.36-.42.07-1.36.19-2.44.3-.35-.2-.63-.99-1.63-1.85-1.01-.87-2.74-1.8-3.68-2.86-1.9-2.15-2.91-4.21.08-4.14.74.02 1.49-.12 1.82-.65.26-.41.07-.6.32-1.81.17-.79.46-1.43.84-1.88.38-.46.94-.36 1.46-.46.52-.1.99-.4 1.56-.11.56.29 1.14.77 1.68 1.45z"/><path fill-rule="evenodd" d="M77.06 100.22c-.16-.01-.33-.01-.49-.02-.85-2.37-2.18-4.29-3.93-5.9 1.75.97 3.47 3.35 4.42 5.92zM77.92 100.1c.15-.05.31-.1.46-.15-.31-2.47.04-4.66.96-6.73-1.22 1.47-1.72 4.21-1.42 6.88z"/><path fill-rule="evenodd" fill="#F4C027" stroke="#000" stroke-width=".737" stroke-miterlimit="22.926" d="M82.21 89.42c-.11.88-.23 1.83-.67 2.67-.66 1.27-2.3.78-4.04-.43-.55-.38-1.39-.47-2.17-.33-.77.14-1.49.49-1.79 1-.99 1.63-2.19 2.55-3.31 1.62-.74-.62-1.25-1.42-1.72-2.15.3-.13.73-.19 1.3-.18.74.02 1.49-.12 1.82-.65.26-.41.07-.6.32-1.81.17-.8.46-1.43.84-1.89.38-.46.94-.36 1.46-.45.52-.1.99-.4 1.56-.11.57.29 1.15.77 1.69 1.45.83 1.04.72 1.29 1.18 1.59.59.38 1.38.25 2.12-.03.57-.23 1.03-.32 1.41-.3z"/><path fill-rule="evenodd" fill="#F4C027" stroke="#000" stroke-width=".789" stroke-miterlimit="22.926" d="M65.67 101.3c.48-.58.67-.45.76-.82.11-.47-.17-1.21-.53-1.92-1.45-2.83.09-2.59 2.19-1.47.53.28 1.15.78 1.76 1.3.62.52 1.23 1.07 1.74 1.43 1.04.74 1.68.76 1.98 1.06.46 1.15.84 2.14 1 2.59.18.45.55 1.44.96 2.58-.07.32-.66.41-1.11 1.22-.44.8-.78 2.26-1.32 2.97-.79 1.03-1.51 1.64-2.07 1.54-.56-.1-.96-.91-1.11-2.71-.06-.7-.46-1.44-.92-1.87-.36-.34-.44-.2-1.34-.7-.58-.32-1.07-.72-1.46-1.15-.39-.43-.45-.91-.63-1.39-.18-.48-.48-.95-.44-1.4.05-.45.23-.89.54-1.26z"/><path fill-rule="evenodd" d="M74.86 104.36c.04.2.09.39.14.58-.9.21-1.65.58-2.27 1.08-.62.51-1.12 1.16-1.51 1.93.14-.86.57-1.64 1.21-2.25s1.47-1.09 2.43-1.34zM74.49 103.32c-.09-.19-.18-.38-.27-.58-1-.08-1.97-.34-2.92-.75-.94-.4-1.86-.96-2.77-1.65.72.8 1.66 1.49 2.69 2 1.04.52 2.18.86 3.27.98z"/><path fill-rule="evenodd" fill="#F4C027" stroke="#000" stroke-width=".737" stroke-linejoin="round" stroke-miterlimit="22.926" d="M65.42 96.73c.62.23 1.03.51 1.75 1.09.54.45.84 1.09.94 1.82.11.74.02 1.57-.18 2.4-.13.51.03 1.39.33 2.25.3.86.76 1.71 1.22 2.17 1.52 1.52 2.59 3.12 2.17 4.11-.28.65-.49.82-.92 1.11-.18-.37-.61-.7-.76-1.33-.19-.81-.49-1.65-.98-2.16-.37-.4-.46-.84-1.38-1.41-.6-.37-1.11-.21-1.52-.71-.79-.96-1.83-3.33-.81-4.4 1-1.06 1.36-1.66.51-3.49-.3-.62-.29-1.07-.37-1.45z"/><g fill-rule="evenodd"><path fill="#F4C027" stroke="#000" stroke-width=".75" stroke-miterlimit="22.926" d="M92.04 104.42c-.8.68-1 .55-1.22.96-.28.52-.15 1.32.09 2.06.96 2.94-.85 2.68-3.02 1.56-1.08-.56-2.34-1.99-3.32-2.71s-1.67-.71-1.94-1.01c-.28-1.16-.5-2.18-.59-2.65-.11-.46-.32-1.5-.55-2.73.13-.36.81-.53 1.48-1.52.68-1 1.35-2.87 2.22-3.78 1.79-1.86 3.59-2.66 3.69.92.02.87.18 1.74.65 2.22.37.37.52.18 1.54.68.67.33 1.2.75 1.58 1.24.38.49.3 1.07.39 1.63.08.55.33 1.09.11 1.63-.22.53-.59 1.05-1.11 1.5z"/><path d="M81.96 102.17c-.01-.18-.03-.36-.04-.54 2-.54 3.55-1.69 4.81-3.36-.71 1.79-2.63 3.27-4.77 3.9zM82.16 103.11l.18.51c2.09.04 3.97.73 5.73 1.94-1.29-1.44-3.63-2.37-5.91-2.45z"/><path fill="#F4C027" stroke="#000" stroke-width=".769" stroke-miterlimit="22.926" d="M91.17 108.8c-.68-.21-1.42-.43-2.1-.95-1.04-.8-.74-2.34.15-3.93.29-.51.32-1.37.17-2.21-.15-.84-.48-1.67-.93-2.1-1.46-1.4-2.36-2.94-1.61-4.07.5-.76 1.17-1.2 1.79-1.61.13.39.22.91.24 1.58.02.87.18 1.74.64 2.22.37.37.52.18 1.54.68.67.33 1.2.75 1.58 1.24.38.49.3 1.07.39 1.63.08.55.33 1.09.11 1.63-.22.54-.59 1.05-1.11 1.5-.8.68-1 .55-1.22.96-.28.52-.15 1.32.09 2.06.2.57.28 1.02.27 1.37z"/></g><g fill-rule="evenodd" stroke="#000" stroke-width=".75" stroke-miterlimit="22.926"><path fill="#F4C027" d="M77.38 98.37c2.51-.12 4.93 2.06 5.29 4.72.36 2.67-1.4 4.74-3.8 4.76-2.41.03-4.64-1.93-5.1-4.5-.47-2.56 1.1-4.86 3.61-4.98z"/><path fill="#F4C027" d="M77.59 99.68c1.83-.08 3.6 1.5 3.87 3.45.27 1.95-.99 3.49-2.78 3.52-1.77.03-3.44-1.45-3.76-3.33-.34-1.91.83-3.56 2.67-3.64z"/><path fill="#00498F" d="M77.79 101.01c1.15-.04 2.24.94 2.42 2.16.18 1.22-.61 2.21-1.74 2.23-1.12.02-2.18-.9-2.38-2.11s.56-2.24 1.7-2.28z"/></g><path fill-rule="evenodd" fill="#FFF" stroke="#000" stroke-width=".75" stroke-miterlimit="22.926" d="M170.09 90.04c2.19 0 3.97-1.78 3.97-3.97 0-2.19-1.78-3.97-3.97-3.97-2.19 0-3.97 1.78-3.97 3.97 0 2.19 1.78 3.97 3.97 3.97zM203.89 97.8c2.03 0 3.69-1.66 3.69-3.69s-1.66-3.69-3.69-3.69-3.68 1.66-3.68 3.69 1.65 3.69 3.68 3.69zM207.41 91.06c2.03 0 3.69-1.66 3.69-3.69 0-2.03-1.66-3.69-3.69-3.69s-3.68 1.66-3.68 3.69c0 2.04 1.65 3.69 3.68 3.69zM210.73 84.25c2.03 0 3.69-1.66 3.69-3.69s-1.66-3.69-3.69-3.69c-2.03 0-3.68 1.66-3.68 3.69s1.65 3.69 3.68 3.69z"/><g fill-rule="evenodd" stroke="#000" stroke-miterlimit="22.926"><path fill="#F4C027" stroke-width=".752" d="M145.61 89.52c-2.13-.14-1.6 3.65-1.18 4.49.55 1.1 1.06 1.14 1.75.12.53-.78 1.56-4.46-.57-4.61z"/><path fill="#FFF" stroke-width=".75" d="M145.47 91.57c-5.01-.34-3.77 8.56-2.78 10.55 1.29 2.59 2.49 2.67 4.11.28 1.25-1.83 3.67-10.49-1.33-10.83z"/></g><g fill-rule="evenodd" stroke="#000" stroke-miterlimit="22.926"><path fill="#F4C027" stroke-width=".752" d="M185.83 94.88c-2.03-.65-2.43 3.16-2.22 4.08.27 1.2.76 1.36 1.67.53.7-.63 2.58-3.96.55-4.61z"/><path fill="#FFF" stroke-width=".75" d="M185.2 96.84c-4.78-1.52-5.7 7.42-5.21 9.58.64 2.82 1.78 3.19 3.93 1.25 1.65-1.48 6.06-9.31 1.28-10.83z"/></g><path fill-rule="evenodd" fill="#F4C027" stroke="#000" stroke-width=".75" stroke-linejoin="round" stroke-miterlimit="22.926" d="M133.18 49.7c10.74-.97 21.72.12 32.6 4.44 9.16 3.64 8.27 14.26-2.91 29.01 1.01 1.87 1.59 4.19 1.68 6.87-1.18-.06-2.01-.03-3.05-.06.81-1.79-.1-3.97-1.12-5.52-.67-1.01-.8-.83 0-1.95 6.65-9.28 11.06-17.4 8.47-22.31-3.15-5.96-15.37-9.07-35.97-8.61.04-.54.08-1.09.11-1.65l.19-.22z"/><path fill-rule="evenodd" fill="#FFF" stroke="#000" stroke-width=".75" stroke-miterlimit="22.926" d="M185.29 60.38c2.11 0 3.83-1.72 3.83-3.83s-1.72-3.83-3.83-3.83c-2.11 0-3.83 1.72-3.83 3.83s1.73 3.83 3.83 3.83z"/><path fill-rule="evenodd" fill="#FFF" stroke="#000" stroke-width=".75" stroke-miterlimit="22.926" d="M177.79 57.93c2.11 0 3.83-1.72 3.83-3.83 0-2.11-1.72-3.83-3.83-3.83-2.11 0-3.83 1.72-3.83 3.83.01 2.11 1.73 3.83 3.83 3.83z"/><path fill-rule="evenodd" fill="#F4C027" stroke="#000" stroke-width=".75" stroke-miterlimit="22.926" d="M176.8 53.54c-.38.51-.76 1.01-1.15 1.52 6.05 3.32 8.55 6.81 7.96 10.33-.1.6-1.94 7.04-6.05 19.52-2.81 1.94-4.9 3.67-6.28 5.2.16.17-.44.72-.26.87-.42 1.91 1.73 1.52 3.17 1.05.69-1.83 2.81-3.77 4.03-4.61.25-.17 1.14-.61 1.23-.89 2.2-7.02 4.41-13.51 6.3-19.56 1.92-6.08-2.21-10.38-8.95-13.43z"/><path fill-rule="evenodd" fill="#F4C027" stroke="#000" stroke-width=".75" stroke-linejoin="round" stroke-miterlimit="22.926" d="M200.66 98.63l.23 1.22c1.76.41 3.27.51 4.52.31-2.1-2.04-3.66-2.47-4.75-1.53z"/><path fill-rule="evenodd" fill="#F4C027" stroke="#000" stroke-width=".76" stroke-miterlimit="22.926" d="M200.85 95.83c-1.1.24-1.21.43-1.69.51-.62.11-1.47.06-2.06-.45-2.39-1.44-2.44 1.15-1.51 3.08.67 1.4.33 2.99-.32 4.19-.76 1.42-.6 2.07-.06 2.45.37.24.73.47 1.05.67.64.76 1.13.63 1.22-.36 2.39-.98 3.18-3.27 3.89-5.29 1.05-2.95 4.85-3.65-.52-4.8z"/><path fill-rule="evenodd" fill="#F4C027" stroke="#000" stroke-width=".832" stroke-miterlimit="22.926" d="M199.91 95.93c-2.08.74-2.31-.41-3.72-.35.55 3.18 1.11 4.83 4.43 3.12 1.83-.94 4.18.44 4.62 1.46.16.37 1.23-.4 1.62-1.25 1.63-3.57-4.17-3.97-6.95-2.98z"/><path fill-rule="evenodd" fill="#FFF" stroke="#000" stroke-width=".75" stroke-miterlimit="22.926" d="M136.52 49.1c2.1 0 3.81-1.71 3.81-3.81s-1.71-3.81-3.81-3.81-3.81 1.71-3.81 3.81 1.72 3.81 3.81 3.81zM144.33 49.1c2.1 0 3.81-1.71 3.81-3.81s-1.71-3.81-3.81-3.81-3.81 1.71-3.81 3.81 1.71 3.81 3.81 3.81zM152.14 49.71c2.1 0 3.81-1.71 3.81-3.81s-1.71-3.81-3.81-3.81-3.81 1.71-3.81 3.81 1.71 3.81 3.81 3.81z"/><path fill-rule="evenodd" fill="#FFF" stroke="#000" stroke-width=".75" stroke-miterlimit="22.926" d="M159.33 51.09c2.1 0 3.81-1.71 3.81-3.81s-1.71-3.81-3.81-3.81-3.81 1.71-3.81 3.81 1.71 3.81 3.81 3.81zM206.67 70.75c2.11 0 3.83-1.72 3.83-3.83s-1.72-3.83-3.83-3.83c-2.11 0-3.83 1.72-3.83 3.83s1.72 3.83 3.83 3.83z"/><path fill-rule="evenodd" fill="#FFF" stroke="#000" stroke-width=".75" stroke-miterlimit="22.926" d="M200.11 66.62c2.11 0 3.83-1.72 3.83-3.83s-1.72-3.83-3.83-3.83c-2.11 0-3.83 1.72-3.83 3.83s1.72 3.83 3.83 3.83zM192.65 63.12c2.11 0 3.83-1.72 3.83-3.83s-1.72-3.83-3.83-3.83c-2.11 0-3.83 1.72-3.83 3.83s1.72 3.83 3.83 3.83zM211.74 76.97c2.11 0 3.83-1.72 3.83-3.83s-1.72-3.83-3.83-3.83c-2.11 0-3.83 1.72-3.83 3.83s1.73 3.83 3.83 3.83z"/><path fill-rule="evenodd" fill="#F4C027" stroke="#000" stroke-width=".771" stroke-miterlimit="22.926" d="M191.31 111.33c-1.51-.46-3.86 2.87-4.42 2.81-.74-1.9.77-6.45 3.45-10.06 1.82-.59 1.98-1.76 2.36-4.47.11-.81 1.67-.25 1.7 1.13.03 1.48.15 2.3-.19 3.56-.13.5-.06.97.5 1.43-2.84 1.12-3.53 2.49-3.4 5.6z"/><path fill-rule="evenodd" fill="#F4C027" stroke="#000" stroke-width=".763" stroke-linejoin="round" stroke-miterlimit="22.926" d="M192.66 99.64c.26.62.34 1.14.4 2.08.05.72-.22 1.4-.68 2-.46.6-1.13 1.13-1.88 1.56-.46.27-.99 1-1.41 1.84-.42.83-.72 1.78-.74 2.45-.06 2.21-.49 4.15-1.51 4.53-.66.25-.93.21-1.44.09.14-.4.09-.96.45-1.51.46-.72.86-1.54.9-2.26.03-.56.3-.93.08-2.04-.14-.71-.61-.98-.52-1.64.16-1.28 1.17-3.72 2.65-3.72 1.46 0 2.14-.16 2.9-2.08.25-.65.58-.97.8-1.3z"/><g fill-rule="evenodd" stroke="#000" stroke-miterlimit="22.926"><path fill="#F4C027" stroke-width=".755" d="M198.15 104.95c-.4-.3-.88-.53-1.33-.7-.77-.3-1.59-.34-2.38-.11-3.5 1.05-5.03 7.22-1.2 8.7.75.09 1.45-.59 2.13-2.08.8-1.97 1.65-3.34 2.56-4.17.57-.7.59-1.29.22-1.64z"/><path fill="#F4C027" stroke-width=".755" d="M196.39 105.36c-3.36-1.3-5.83 5.09-2.69 6.3 1.69.65 1.85-1.44 2.17-2.61.44-1.57 3.75-2.44.52-3.69z"/><path fill="#00498F" stroke-width=".737" d="M196.04 106.3c-1.64-.63-3.89 3.18-1.84 4.04 1.39.58 2.48-.18 2.92-1.33s.07-2.26-1.08-2.71z"/></g><path fill-rule="evenodd" fill="#FFF" stroke="#000" stroke-width=".75" stroke-miterlimit="22.926" d="M173.15 83.55c2.19 0 3.97-1.78 3.97-3.97 0-2.19-1.78-3.97-3.97-3.97-2.19 0-3.97 1.78-3.97 3.97 0 2.19 1.78 3.97 3.97 3.97z"/><path fill-rule="evenodd" fill="#FFF" stroke="#000" stroke-width=".75" stroke-miterlimit="22.926" d="M176.04 76.96c2.19 0 3.97-1.78 3.97-3.97 0-2.19-1.78-3.97-3.97-3.97-2.19 0-3.97 1.78-3.97 3.97.01 2.18 1.79 3.97 3.97 3.97zM166.54 53.45c2.11 0 3.83-1.72 3.83-3.83s-1.72-3.83-3.83-3.83c-2.11 0-3.83 1.72-3.83 3.83s1.73 3.83 3.83 3.83z"/><path fill-rule="evenodd" fill="#FFF" stroke="#000" stroke-width=".75" stroke-miterlimit="22.926" d="M172.97 56.65c2.19 0 3.97-1.78 3.97-3.97 0-2.19-1.78-3.97-3.97-3.97-2.19 0-3.97 1.78-3.97 3.97 0 2.19 1.79 3.97 3.97 3.97z"/><path fill-rule="evenodd" fill="#FFF" stroke="#000" stroke-width=".75" stroke-miterlimit="22.926" d="M177.71 62.26c2.19 0 3.97-1.78 3.97-3.97 0-2.19-1.78-3.97-3.97-3.97-2.19 0-3.97 1.78-3.97 3.97 0 2.19 1.78 3.97 3.97 3.97z"/><path fill-rule="evenodd" fill="#FFF" stroke="#000" stroke-width=".75" stroke-miterlimit="22.926" d="M178.47 69.32c2.19 0 3.97-1.78 3.97-3.97s-1.78-3.97-3.97-3.97c-2.19 0-3.97 1.78-3.97 3.97s1.79 3.97 3.97 3.97z"/><path fill-rule="evenodd" d="M197.51 104.44l-.42-.18c.96-1.33 1.17-2.6.8-3.88.81 1.01.61 2.61-.38 4.06z"/><g fill-rule="evenodd"><path fill="#F4C027" stroke="#000" stroke-width=".75" stroke-miterlimit="22.926" d="M166.5 88.14c-.83 1.04-.73 1.29-1.18 1.59-.59.39-1.38.25-2.12-.03-3.03-1.15-3.03 1.24-2.15 3.98.43 1.33 1.72 2.77 2.29 3.89.57 1.11.44 1.93.7 2.22 1.1.18 2.04.31 2.47.36.42.07 1.36.19 2.44.3.35-.2.63-.99 1.63-1.85 1.01-.87 2.74-1.8 3.68-2.86 1.9-2.15 2.91-4.21-.08-4.14-.74.02-1.49-.12-1.82-.65-.26-.41-.07-.6-.32-1.81-.17-.79-.46-1.43-.84-1.88-.38-.46-.94-.36-1.46-.46-.52-.1-.99-.4-1.56-.11-.56.29-1.14.77-1.68 1.45z"/><path d="M166.94 100.22c.16-.01.33-.01.49-.02.85-2.37 2.18-4.29 3.93-5.9-1.76.97-3.47 3.35-4.42 5.92zM166.08 100.1c-.15-.05-.31-.1-.46-.15.31-2.47-.04-4.66-.96-6.73 1.22 1.47 1.72 4.21 1.42 6.88z"/><path fill="#F4C027" stroke="#000" stroke-width=".737" stroke-miterlimit="22.926" d="M161.79 89.42c.11.88.23 1.83.67 2.67.66 1.27 2.3.78 4.04-.43.55-.38 1.39-.47 2.17-.33.77.14 1.48.49 1.79 1 1 1.63 2.19 2.55 3.31 1.62.74-.62 1.25-1.42 1.72-2.15-.3-.13-.73-.19-1.3-.18-.74.02-1.49-.12-1.82-.65-.26-.41-.07-.6-.32-1.81-.17-.8-.46-1.43-.84-1.89-.38-.46-.94-.36-1.46-.45-.52-.1-.99-.4-1.56-.11-.57.29-1.15.77-1.69 1.45-.83 1.04-.73 1.29-1.18 1.59-.59.38-1.38.25-2.12-.03-.57-.23-1.03-.32-1.41-.3z"/></g><path fill-rule="evenodd" fill="#F4C027" stroke="#000" stroke-width=".789" stroke-miterlimit="22.926" d="M178.33 101.3c-.48-.58-.67-.45-.76-.82-.11-.47.17-1.21.53-1.92 1.45-2.83-.09-2.59-2.19-1.47-.53.28-1.15.78-1.76 1.3-.62.52-1.23 1.07-1.74 1.43-1.04.74-1.68.76-1.98 1.06-.46 1.15-.84 2.14-1 2.59-.18.45-.55 1.44-.96 2.58.07.32.66.41 1.11 1.22.44.8.78 2.26 1.32 2.97.79 1.03 1.51 1.64 2.07 1.54.56-.1.96-.91 1.11-2.71.06-.7.46-1.44.92-1.87.36-.34.44-.2 1.34-.7.58-.32 1.07-.72 1.46-1.15.39-.43.45-.91.63-1.39.18-.48.48-.95.44-1.4-.05-.45-.23-.89-.54-1.26z"/><path fill-rule="evenodd" d="M169.14 104.36c-.04.2-.09.39-.14.58.9.21 1.65.58 2.27 1.08.62.51 1.12 1.16 1.51 1.93-.14-.86-.57-1.64-1.21-2.25-.63-.62-1.47-1.09-2.43-1.34zM169.51 103.32c.09-.19.18-.38.27-.58 1-.08 1.97-.34 2.92-.75.94-.4 1.86-.96 2.77-1.65-.72.8-1.66 1.49-2.69 2-1.04.52-2.18.86-3.27.98z"/><path fill-rule="evenodd" fill="#F4C027" stroke="#000" stroke-width=".737" stroke-linejoin="round" stroke-miterlimit="22.926" d="M178.58 96.73c-.62.23-1.03.51-1.75 1.09-.54.45-.84 1.09-.94 1.82-.11.74-.02 1.57.18 2.4.13.51-.03 1.39-.33 2.25-.3.86-.76 1.71-1.22 2.17-1.52 1.52-2.59 3.12-2.17 4.11.28.65.49.82.92 1.11.18-.37.61-.7.76-1.33.19-.81.49-1.65.98-2.16.37-.4.46-.84 1.38-1.41.6-.37 1.11-.21 1.52-.71.79-.96 1.83-3.33.81-4.4-1-1.06-1.36-1.66-.51-3.49.3-.62.29-1.07.37-1.45z"/><g fill-rule="evenodd"><path fill="#F4C027" stroke="#000" stroke-width=".737" stroke-miterlimit="22.926" d="M151.96 104.42c.8.68 1 .55 1.22.96.28.52.15 1.32-.09 2.06-.96 2.94.85 2.68 3.02 1.56 1.08-.56 2.34-1.99 3.32-2.71s1.67-.71 1.94-1.01c.28-1.16.5-2.18.58-2.65.11-.46.32-1.5.55-2.73-.14-.36-.81-.53-1.48-1.52-.68-1-1.35-2.87-2.22-3.78-1.79-1.86-3.59-2.66-3.69.92-.02.87-.18 1.74-.65 2.22-.37.37-.52.18-1.54.68-.67.33-1.2.75-1.58 1.24-.38.49-.3 1.07-.39 1.63-.08.55-.33 1.09-.11 1.63.23.53.6 1.05 1.12 1.5z"/><path d="M162.04 102.17c.01-.18.03-.36.04-.54-2-.54-3.55-1.69-4.81-3.36.71 1.79 2.63 3.27 4.77 3.9zM161.84 103.11l-.18.51c-2.09.04-3.97.73-5.73 1.94 1.29-1.44 3.63-2.37 5.91-2.45z"/><path fill="#F4C027" stroke="#000" stroke-width=".765" stroke-miterlimit="22.926" d="M152.83 108.8c.68-.21 1.42-.43 2.1-.95 1.04-.8.74-2.34-.16-3.93-.29-.51-.32-1.37-.17-2.21.15-.84.48-1.67.93-2.1 1.46-1.4 2.36-2.94 1.61-4.07-.5-.76-1.17-1.2-1.79-1.61-.13.39-.22.91-.24 1.58-.02.87-.17 1.74-.64 2.22-.37.37-.52.18-1.54.68-.67.33-1.2.75-1.58 1.24-.38.49-.3 1.07-.39 1.63-.08.55-.33 1.09-.11 1.63.22.54.59 1.05 1.11 1.5.8.68 1 .55 1.22.96.28.52.15 1.32-.09 2.06-.19.57-.27 1.02-.26 1.37z"/></g><g fill-rule="evenodd" stroke="#000" stroke-miterlimit="22.926"><path fill="#F4C027" stroke-width=".75" d="M166.62 98.37c-2.51-.12-4.93 2.06-5.29 4.72-.36 2.67 1.4 4.74 3.8 4.76 2.41.03 4.64-1.93 5.1-4.5.47-2.56-1.1-4.86-3.61-4.98z"/><path fill="#F4C027" stroke-width=".737" d="M166.41 99.68c-1.84-.08-3.6 1.5-3.87 3.45s.99 3.49 2.78 3.52c1.77.03 3.44-1.45 3.76-3.33.34-1.91-.83-3.56-2.67-3.64z"/><path fill="#00498F" stroke-width=".75" d="M166.21 101.01c-1.15-.04-2.25.94-2.42 2.16s.61 2.21 1.74 2.23c1.12.02 2.18-.9 2.38-2.11.19-1.2-.56-2.24-1.7-2.28z"/></g><path fill-rule="evenodd" fill="#F4C027" stroke="#000" stroke-width=".75" stroke-miterlimit="22.926" d="M181.08 146.08c1.25.19 1.91.97 1.86 1.77.04.8-.62 1.58-1.87 1.77-.28.08-.6.13-.95.17-37.89 3.24-78.36 3.24-116.25 0-.35-.03-.67-.09-.95-.17-1.25-.19-1.91-.97-1.87-1.77-.04-.8.62-1.58 1.86-1.77.29-.08.6-.13.96-.16 37.89-3.24 78.36-3.24 116.25 0 .36.03.68.09.96.16z"/><path fill="none" stroke="#000" stroke-width=".77" stroke-linecap="round" stroke-miterlimit="22.926" d="M78.39 148.59c4.84-.3 9.68-.55 14.53-.75 4.84-.2 9.69-.35 14.54-.44 4.85-.1 9.7-.14 14.54-.14 4.85 0 9.7.06 14.54.16 4.85.1 9.7.26 14.54.46s9.69.45 14.53.75M78.39 148.7c4.84.3 9.68.55 14.53.75m58.16-.03c4.84-.2 9.69-.45 14.53-.75"/></g><path fill="#D93A43" stroke="#000" stroke-width="1.5" stroke-miterlimit="22.926" d="M15.7 150.35v171.81c0 30.75 11.94 58.66 31.19 78.89 19.26 20.23 45.83 32.77 75.1 32.77 29.27 0 55.85-12.54 75.1-32.77 19.26-20.23 31.19-48.14 31.19-78.89V150.35H15.7z"/><path fill-rule="evenodd" clip-rule="evenodd" fill="#FFF" stroke="#000" stroke-width=".75" stroke-miterlimit="22.926" d="M122.96 424.93c.92-.15 2.48.04 3.66-.88 1.57-1.23.95-6.2.8-9.34-.72-16.05-1.38-43.08-2.2-81.04-1.34-.18-2.32-.09-3.23.05-.92-.14-1.89-.23-3.23-.05-.82 37.96-1.48 64.98-2.2 81.04-.14 3.14-.76 8.11.8 9.34 1.18.93 2.74.73 3.66.88h1.94z"/><g fill-rule="evenodd" clip-rule="evenodd" fill="#FFF" stroke="#000" stroke-width=".75" stroke-miterlimit="22.926"><path d="M133.04 424.48c-.93-.07-2.47.27-3.73-.55-1.67-1.08-1.81-6.16-1.95-9.31-.74-16.05-2.23-42.95-4.85-80.83 1.32-.3 2.3-.3 3.22-.24.14-.04.29-.07.44-.1 6.04 37.47 8.33 64.05 12.46 80.08.57 2.21 1.8 7.76-.11 9.56-1.09 1.03-2.66.98-3.57 1.21l-1.91.18z"/><path d="M144.87 422.78c-.94.02-2.43.49-3.76-.21-1.76-.93-1.69-6-2.48-9.04-4.14-16.03-6.42-42.62-12.47-80.1 1.29-.42 2.26-.5 3.19-.53l.13-.04c9.61 36.43 12.49 62.12 19.95 77.98.69 2.2 2.57 8.04.77 10.07-.99 1.12-2.56 1.21-3.44 1.53l-1.89.34z"/><path d="M156.79 419.42c-.93.11-2.5.97-3.88.41-1.85-.75-2.13-6.17-3.46-9-7.49-15.94-10.37-41.78-20.08-78.48 1.24-.55 2.2-.73 3.12-.85.84-.39.68-.58 2.02-.78 11.29 36.25 14.96 61.46 25.61 77.1 1.72 2.53 2.98 7.58 1.81 9.2-.88 1.21-2.43 1.46-3.27 1.86l-1.87.54z"/></g><path fill-rule="evenodd" clip-rule="evenodd" fill="#FFF" stroke="#000" stroke-width=".75" stroke-miterlimit="22.926" d="M110.96 424.48c.93-.07 2.47.27 3.72-.55 1.67-1.08 1.81-6.16 1.95-9.31.74-16.05 2.23-42.95 4.85-80.83-1.32-.3-2.3-.3-3.22-.24-.14-.04-.29-.07-.44-.1-6.04 37.47-8.33 64.05-12.46 80.08-.57 2.21-1.8 7.76.11 9.56 1.09 1.03 2.66.98 3.57 1.21l1.92.18z"/><path fill-rule="evenodd" clip-rule="evenodd" fill="#FFF" stroke="#000" stroke-width=".75" stroke-miterlimit="22.926" d="M99.13 422.78c.94.02 2.43.49 3.76-.21 1.76-.93 1.69-6 2.48-9.04 4.14-16.03 6.42-42.62 12.47-80.1-1.28-.42-2.26-.5-3.19-.53l-.13-.04c-9.61 36.43-12.49 62.12-19.95 77.98-.69 2.2-2.57 8.04-.77 10.07.99 1.12 2.56 1.21 3.44 1.53l1.89.34z"/><path fill-rule="evenodd" clip-rule="evenodd" fill="#FFF" stroke="#000" stroke-width=".75" stroke-miterlimit="22.926" d="M87.21 419.42c.93.11 2.5.97 3.88.41 1.85-.75 2.14-6.17 3.46-9 7.49-15.94 10.37-41.78 20.08-78.48-1.24-.55-2.2-.73-3.12-.85-.84-.39-.68-.58-2.02-.78-11.29 36.25-14.96 61.46-25.61 77.1-1.72 2.53-2.98 7.58-1.81 9.2.88 1.21 2.43 1.46 3.27 1.86l1.87.54z"/><g fill-rule="evenodd" clip-rule="evenodd" fill="#FFF" stroke="#000" stroke-miterlimit="22.926"><path stroke-width=".757" d="M150.49 392.04c-.85.05-2.13.57-3.47-.07-1.78-.85-2.93-5.74-3.89-8.79-7.56-14.91-14.46-41.38-25.78-78.17 1.1-.46 1.97-.58 2.81-.64.75-.33 1.56-.63 2.78-.74 12.19 36.41 17.66 62.74 29.58 77.23 1.97 2.39 3.43 7.62 2.49 9.13-.7 1.14-2.12 1.28-2.86 1.63l-1.66.42z"/><path stroke-width=".754" d="M140.84 393.93c-.85-.02-2.19.4-3.44-.34-1.67-.98-2.26-5.95-2.86-9.05-3.05-15.86-8.66-42.49-16.65-79.87 1.14-.37 2.03-.42 2.87-.41.78-.27 1.62-.5 2.85-.51 9.43 37.14 11.62 64.96 20.54 79.24 1.63 2.6 2.54 7.85 1.43 9.28-.83 1.08-2.26 1.11-3.04 1.39l-1.7.27z"/><path stroke-width=".751" d="M131.03 395.04c-.85-.08-2.22.22-3.39-.62-1.55-1.11-1.56-6.1-1.8-9.24-1.2-16.03-3.73-42.98-7.37-80.83 1.18-.28 2.07-.25 2.91-.18.81-.2 1.67-.37 2.89-.28 5.11 37.72 8.08 65.04 11.31 80.51.64 3.08 1.62 8.02.35 9.36-.95 1.01-2.37.92-3.18 1.14l-1.72.14z"/><path stroke-width=".757" d="M93.51 392.04c.85.05 2.13.57 3.47-.07 1.78-.85 2.93-5.74 3.89-8.79 7.56-14.91 14.46-41.38 25.78-78.17-1.1-.46-1.97-.58-2.81-.64-.75-.33-1.56-.63-2.78-.74-12.19 36.41-17.66 62.74-29.58 77.23-1.97 2.39-3.43 7.62-2.49 9.13.7 1.14 2.12 1.28 2.86 1.63l1.66.42z"/><path stroke-width=".754" d="M103.16 393.93c.85-.02 2.19.4 3.44-.34 1.67-.98 2.26-5.95 2.86-9.05 3.05-15.86 8.66-42.49 16.65-79.87-1.14-.37-2.03-.42-2.87-.41-.78-.27-1.62-.5-2.85-.51-9.43 37.14-11.62 64.96-20.54 79.24-1.63 2.6-2.54 7.85-1.43 9.28.83 1.08 2.25 1.11 3.04 1.39l1.7.27z"/><path stroke-width=".751" d="M112.97 395.04c.85-.08 2.22.22 3.39-.62 1.55-1.11 1.56-6.1 1.8-9.24 1.2-16.03 3.73-42.98 7.37-80.83-1.18-.28-2.07-.25-2.91-.18-.81-.2-1.67-.37-2.9-.28-5.11 37.72-8.08 65.04-11.31 80.51-.65 3.08-1.62 8.02-.35 9.36.95 1.01 2.37.92 3.18 1.14l1.73.14z"/><path stroke-width=".75" d="M122.87 395.37c.83-.15 2.24.04 3.3-.88 1.41-1.23.85-6.2.73-9.34-.65-16.06-1.24-43.08-1.98-81.04-1.21-.18-2.09-.09-2.92.05-.83-.14-1.71-.23-2.91-.05-.74 37.96-1.33 64.98-1.98 81.04-.13 3.14-.69 8.11.73 9.34 1.06.92 2.47.73 3.3.88h1.73z"/></g><g fill-rule="evenodd" clip-rule="evenodd" fill="#FFF" stroke="#000" stroke-miterlimit="22.926"><path stroke-width=".742" d="M143.82 369.96c-.65.05-1.63.57-2.65-.07-1.36-.84-2.25-5.74-2.98-8.78-5.79-14.91-11.07-41.38-19.74-78.17.84-.46 1.51-.58 2.15-.64.57-.33 1.19-.63 2.13-.74 9.34 36.41 13.53 62.74 22.65 77.23 1.51 2.39 2.63 7.62 1.91 9.13-.54 1.14-1.62 1.28-2.19 1.63l-1.28.41z"/><path stroke-width=".75" d="M136.43 371.85c-.65-.02-1.68.4-2.64-.34-1.28-.98-1.73-5.95-2.19-9.05-2.33-15.86-6.64-42.49-12.75-79.87.88-.37 1.55-.42 2.2-.41.6-.27 1.24-.5 2.18-.51 7.22 37.14 8.9 64.96 15.73 79.24 1.25 2.6 1.94 7.85 1.1 9.29-.64 1.08-1.73 1.11-2.33 1.39l-1.3.26z"/><path stroke-width=".75" d="M128.92 372.96c-.65-.08-1.7.22-2.59-.61-1.19-1.11-1.2-6.1-1.38-9.24-.92-16.03-2.86-42.98-5.64-80.83.91-.28 1.58-.25 2.23-.18.62-.2 1.28-.37 2.22-.28 3.91 37.72 6.19 65.04 8.67 80.51.49 3.08 1.24 8.02.27 9.36-.73 1-1.82.92-2.44 1.14l-1.34.13z"/><path stroke-width=".742" d="M100.18 369.96c.65.05 1.63.57 2.66-.07 1.36-.84 2.25-5.74 2.98-8.78 5.79-14.91 11.07-41.38 19.74-78.17-.84-.46-1.51-.58-2.15-.64-.57-.33-1.19-.63-2.13-.74-9.34 36.41-13.53 62.74-22.65 77.23-1.51 2.39-2.63 7.62-1.91 9.13.54 1.14 1.62 1.28 2.19 1.63l1.27.41z"/><path stroke-width=".75" d="M107.57 371.85c.65-.02 1.68.4 2.64-.34 1.28-.98 1.73-5.95 2.19-9.05 2.33-15.86 6.64-42.49 12.75-79.87-.88-.37-1.55-.42-2.2-.41-.6-.27-1.24-.5-2.18-.51-7.23 37.14-8.9 64.96-15.73 79.24-1.25 2.6-1.94 7.85-1.1 9.29.64 1.08 1.73 1.11 2.33 1.39l1.3.26z"/><path stroke-width=".75" d="M115.08 372.96c.65-.08 1.7.22 2.59-.61 1.19-1.11 1.2-6.1 1.38-9.24.92-16.03 2.85-42.98 5.64-80.83-.91-.28-1.58-.25-2.23-.18-.62-.2-1.28-.37-2.22-.28-3.91 37.72-6.19 65.04-8.66 80.51-.49 3.08-1.24 8.02-.27 9.36.73 1 1.82.92 2.44 1.14l1.33.13z"/><path stroke-width=".75" d="M122.67 373.29c.64-.15 1.71.04 2.53-.88 1.08-1.23.65-6.2.56-9.34-.5-16.06-.95-43.08-1.52-81.04-.93-.18-1.6-.09-2.23.05-.63-.14-1.31-.23-2.23-.05-.57 37.96-1.02 64.99-1.52 81.04-.1 3.14-.53 8.11.56 9.34.81.92 1.89.73 2.53.88h1.32z"/></g><g clip-rule="evenodd" stroke="#000" stroke-miterlimit="22.926"><path fill-rule="evenodd" fill="#F4C027" stroke-width=".771" stroke-linejoin="round" d="M77.58 329.78c-2.03.09-4.52 1.25-11.8 7.56-3.18 6.48-6.38 13-10.8 18.63-1.51 1-2.69 1.69-3.88 2.08-1.25.41-10.43.11-10.65-.28-2.86-2.59-7.22-.74-5.76 1.99-1.13 1.07 1.36 5 3.36 3.37 1.84-1.49 8.24-.08 10.37-.86-.81 1.92-6.59 3.17-10.63 3.46-3.69.16-3.45 3.84-1.92 6.67 1.73 1.1.31-.29.94.52 1.65 2.45 5.19 2.13 5.31-.26.12-2.48 8.75-5.71 10.04-7.61-1.58 3.76-5.23 7.28-7.04 10.96-1.94 1.95-3.13 2.34-.61 6.28 2.79-.32 2.95-1.06 4.67.56 3.81-.42 4.43-1.55 3.81-4.57-.65-3.19 2.02-8.95 2.9-10.58.82-1.5 1.02-3.06 1.82-4 1.38-1.64 7.97-4.91 9.66-4.01 3.11 1.65 5.48.65 5.87-2.35-1-.77-.25-5.05-2.4-5.23-1.76-.15-2.8.39-4.41 1.71-2.54 2.08-3.85 3.18-4.69 2.95-1.98-.55 3.59-3.28 8.67-9.93 7.02-9.22 7.5-13.9 7.17-17.06z"/><path fill-rule="evenodd" fill="#F4C027" stroke-width=".757" d="M35.11 361.45c-2.55-1.49-4.01-1.43-5-.32-.54.61-1.24.29-.83-.66 1.69-4 4.39-4.5 6.81-2.62.68.63 1.22 1.17 1.77 1.7-.4.6-2.42 1.44-2.75 1.9z"/><path fill-rule="evenodd" fill="#F4C027" stroke-width=".752" d="M71.56 357.88c2.7-1.84 5.23-2.2 6.62-1.16.76.57 1.52.16.84-.78-2.8-3.94-6.08-4.14-8.56-1.92-.67.73-1.21 1.35-1.74 1.97.85.92 2.72 1.97 2.84 1.89z"/><path fill-rule="evenodd" fill="#F4C027" stroke-width=".75" d="M50.28 380.46c-1.66 3.28-2.53 5.52-1.81 7.28.42 1.03-.06 1.97-1.1 1.08-4.22-3.62-4.23-7.77-1.53-10.59.9-.94 1.86-1.55 2.72-2.23 1.1 1.01 1.8 4.3 1.72 4.46z"/><path fill-rule="evenodd" fill="#F4C027" stroke-width=".866" d="M39.74 371.83c-2.51 1.04-3.38 2.36-3.28 4.09.05.95-.58 1.31-.93.2-3.07-7.12.11-8.45 4.71-8.19.26 1.24-.4 3.86-.5 3.9z"/><path fill="none" stroke-width=".75" d="M61.35 355.98c-1.65-.96-1.75-2.03-1.32-2.74.92-1.52 1.84-.79 3.57.62"/><path fill="none" stroke-width=".75" d="M63.49 353.65c-1.65-.96-1.75-2.03-1.32-2.74.92-1.52 1.84-.79 3.57.61"/><path fill="none" stroke-width=".838" d="M65.89 351.45c-1.82-1.25-1.93-2.64-1.45-3.57 1.01-1.98 2.03-1.02 3.94.8"/><path fill="none" stroke-width=".877" d="M68.48 348.67c-1.93-1.41-2.05-2.98-1.54-4.03 1.07-2.23 2.15-1.16 4.18.9"/><path fill="none" stroke-width=".899" d="M71.21 345.72c-1.8-1.5-2.36-2.98-1.54-4.29 1.29-2.04 2.15-1.23 4.18.96"/></g><path fill-rule="evenodd" clip-rule="evenodd" fill="#F4C027" stroke="#000" stroke-width=".75" stroke-linejoin="round" stroke-miterlimit="22.926" d="M95.63 185.56c-1.29 1.13-5.55 1.14-11.39 1.52-9.4.33-14.84-2.5-16.05-8.51 3.53 4.2 7.73 6.27 12.51 5.09 6.45-1.59 10.14-2.74 11.61-2.46.99.36 2.44 2.15 3.32 4.36z"/><g fill-rule="evenodd" clip-rule="evenodd" fill="#FFF" stroke="#000" stroke-width=".75" stroke-miterlimit="22.926"><path d="M117.39 313.7c-.05 2.69-.08 5.71-.1 8.81l-.03.01-6.72 1.39c-.02 3.06 7.56 35.1 11.46 35.1 3.9 0 11.47-32.06 11.46-35.12l-6.72-1.37-.03-.01c-.02-3.1-.05-6.12-.1-8.81-1.41 1.17-2.97 3.21-4.61 5.05-1.64-1.84-3.2-3.88-4.61-5.05z"/><path stroke-linejoin="round" d="M109.61 327.3l-6.02-3.4c-2.53 1.82-4.41 8.56-.08 14.07 5.39 6.87 7.58 11.84 8.9 17.4 3.93-5.02 5.28-10.3 2.78-15.46-3.36-6.95-5.55-10.87-5.58-12.61z"/><path stroke-linejoin="round" d="M114.53 322.49l-6.02-3.4c-2.53 1.82-7.83 8.34-3.5 13.85 5.39 6.87 11 12.06 12.32 17.62 3.93-5.02 5.6-10.3 3.1-15.46-3.36-6.95-5.87-10.87-5.9-12.61zM134.39 327.3l6.02-3.4c2.53 1.82 4.41 8.56.08 14.07-5.39 6.87-7.58 11.84-8.9 17.4-3.93-5.02-5.28-10.3-2.78-15.46 3.36-6.95 5.55-10.87 5.58-12.61z"/><path stroke-linejoin="round" d="M129.47 322.49l6.02-3.4c2.53 1.82 7.83 8.34 3.5 13.85-5.39 6.87-11 12.06-12.32 17.62-3.93-5.02-5.6-10.3-3.1-15.46 3.36-6.95 5.87-10.87 5.9-12.61zM101.25 320.05l-6.02-3.4c-2.53 1.82-4.41 8.56-.08 14.07 5.39 6.87 7.58 11.84 8.9 17.4 3.93-5.02 5.28-10.3 2.78-15.46-3.37-6.95-5.56-10.86-5.58-12.61z"/><path stroke-linejoin="round" d="M142.75 320.05l6.02-3.4c2.53 1.82 4.41 8.56.08 14.07-5.39 6.87-7.58 11.84-8.9 17.4-3.93-5.02-5.28-10.3-2.78-15.46 3.37-6.95 5.55-10.86 5.58-12.61z"/></g><path fill-rule="evenodd" clip-rule="evenodd" fill="#FFF" stroke="#000" stroke-width=".77" stroke-miterlimit="22.926" d="M73.37 256.62c.12 5.5-.86 42.15-1.17 47.33-.31 5.16-2.6 8.67-5.04 10.69-2.24-3.07-3.57-7.21-3.89-12.13-.16-2.51.3-37.19.49-44.32 4.12-10.87 7.17-11.28 9.61-1.57z"/><path fill-rule="evenodd" clip-rule="evenodd" fill="#FFF" stroke="#000" stroke-width=".769" stroke-miterlimit="22.926" d="M49.5 247.66l-1.56 50.39c-.49 4.47 5.34 31.08 8.53 36.32 7.89-3.37 9.55-21.42 8.07-39-1.48-17.59.25-32.78 1.45-35.94.11-3.98-.56-8.13-.6-12.27-5.02.3-10.86.2-15.89.5z"/><path fill-rule="evenodd" clip-rule="evenodd" fill="#FFF" stroke="#000" stroke-width=".769" stroke-miterlimit="22.926" d="M40.16 255.9l1.07 50.41c-.26 4.49 6.95 30.74 10.41 35.8 8-6.2 6.39-31.54 5.17-39.21-2.44-15.28-2.03-32.98-1.19-35.85-.1-3.98-.2-8.74-.46-12.88-5 .58-10 1.16-15 1.73z"/><path fill-rule="evenodd" clip-rule="evenodd" fill="#FFF" stroke="#000" stroke-width=".769" stroke-miterlimit="22.926" d="M33.22 267.84l13.26-.34c-1.13 5.5-.23 22.58 2.06 35.6 2.15 12.21 5.14 43.87-7.59 51.47-7.89-16.7-1.88-32.94-5.86-47.44-3.1-15.42-3.71-28.3-1.87-39.29zM83.94 247.37c-.05 5.5-2.14 42.1-2.6 47.27-.46 5.14-2.86 8.58-5.36 10.52-2.14-3.14-3.35-7.32-3.52-12.25-.09-2.51 1.43-37.17 1.84-44.28 4.43-10.73 7.49-11.05 9.64-1.26z"/><path fill-rule="evenodd" clip-rule="evenodd" fill="#FFF" stroke="#000" stroke-width=".75" stroke-miterlimit="22.926" d="M60.37 217.51c-.35 11.81-.56 37.43-.48 39.61.17 4.92 2.11 11.19 4.26 14.33 2.5-1.94 4.89-5.38 5.36-10.52.38-4.23.51-25 .58-35.41-2.68-1.72-5.43-3.87-7.66-6.16-.02 0-1.98-1.74-2.06-1.85z"/><path fill-rule="evenodd" clip-rule="evenodd" fill="#FFF" stroke="#000" stroke-width=".75" stroke-miterlimit="22.926" d="M69.84 225.13c-.24 12.72-.1 32.76-.04 34.39.17 4.92 1.38 9.11 3.52 12.25 2.5-1.94 5.14-5.5 5.6-10.64.28-3.17 1.17-16.75 1.25-27.17-3.36-1.07-7.6-6.58-10.33-8.83z"/><path fill-rule="evenodd" clip-rule="evenodd" fill="#FFF" stroke="#000" stroke-width=".769" stroke-miterlimit="22.926" d="M61.69 216.45l-9.03-13c-1.83 6.41-4.05 52.41-1.44 56.18.17 4.92 1.95 9.09 4.09 12.23 2.5-1.94 6.23-5.42 5.15-10.63-1.07-5.2.14-39.41 1.23-44.78z"/><path fill-rule="evenodd" clip-rule="evenodd" fill="#FFF" stroke="#000" stroke-width=".769" stroke-miterlimit="22.926" d="M43.17 245.38c-.41 7.12-.7 11.94-.61 14.45.17 4.92 1.38 9.11 3.52 12.25 2.5-1.94 5.68-5.37 5.36-10.52-1.26-19.92.92-38.69 3.46-56.72-2.14-1.57-5.75-3.26-7.9-4.83-4.29 24.28-5.72 39.35-3.83 45.37z"/><path fill-rule="evenodd" clip-rule="evenodd" fill="#FFF" stroke="#000" stroke-width=".769" stroke-linejoin="round" stroke-miterlimit="22.926" d="M34.14 258.42l2.45 9.26c.17 4.92 3.21 8.99 5.36 12.13 2.5-1.94 4.77-5.12 4.13-10.25-3.67-29.42-2.36-48.89 3.83-72.86-13.99 9.53-20.47 29.63-15.77 61.72z"/><path fill-rule="evenodd" clip-rule="evenodd" fill="#FFF" stroke="#000" stroke-width=".769" stroke-miterlimit="22.926" d="M34.85 267.53l-12.83-4.25c-1.63 12.8.88 28.89 4.33 50.1 2.97 18.21 1.41 32.62-.86 41.87 13.69-1.87 19.47-19.49 12.61-52.62-1.79-8.67-3.59-19.76-3.25-35.1z"/><path clip-rule="evenodd" fill="none" stroke="#000" stroke-width=".75" stroke-linecap="round" stroke-miterlimit="22.926" d="M34.46 329.49c.3-8.48-1.12-17.75-2.74-25.54-2.22-10.7-3.36-20.95-3.43-31.72"/><path fill-rule="evenodd" clip-rule="evenodd" fill="#FFF" stroke="#000" stroke-width=".765" stroke-linejoin="round" stroke-miterlimit="22.926" d="M34.34 192.2l8.42 1.41c-.41 1.8-2.55 12.86-2.94 14.75-3.15 15.37-5.22 33.48-2.84 53.35.88 7.37 2.45 13.4 4.75 18.06-9.24-1.05-15.15-10.05-14.39-25.75-1.6-18.34-.9-32.92 2.07-43.89.87-3.22 3.67-15.33 4.93-17.93z"/><path fill-rule="evenodd" clip-rule="evenodd" fill="#FFF" stroke="#000" stroke-width=".765" stroke-miterlimit="22.926" d="M29.24 194.19l4.13 4.71c-1.17.84.82 4.45-.25 11.46-.69 3.98-3.06 8.68-3.56 13.76-1.63 16.84-1.63 37.93 3.44 51.41-9.24-1.05-12.41-9.41-12.71-25.13-.25-13-.29-28.32 2.98-46.01.66-4.13 2.65-7.43 5.97-10.2z"/><path fill-rule="evenodd" clip-rule="evenodd" fill="#FFF" stroke="#000" stroke-width=".777" stroke-miterlimit="22.926" d="M52.31 206.59l-8.52-.99c-1.57 8.04-2.76 13.73-3.05 16.6-.57 5.62 1.14 10.77 3.09 14.61 3.14-1.89 4.6-6.02 5.92-11.82 1.32-5.82 1.65-12.16 2.56-18.4z"/><path fill-rule="evenodd" clip-rule="evenodd" fill="#FFF" stroke="#000" stroke-width=".804" stroke-miterlimit="22.926" d="M74.43 224.7l-7.56.08c-.26 6.94-.45 11.64-.32 14.08.24 4.8 1.44 8.86 3.49 11.9 2.3-1.91 4.47-5.29 4.81-10.31.34-5.03-.38-10.39-.42-15.75z"/><path fill-rule="evenodd" clip-rule="evenodd" fill="#FFF" stroke="#000" stroke-width=".804" stroke-miterlimit="22.926" d="M82.57 228.28l-7.56.34c-.02 6.95-.04 11.65.17 14.09.41 4.79 1.75 8.81 3.91 11.77 2.23-1.99 4.29-5.44 4.45-10.47.17-5.04-.74-10.37-.97-15.73zM66.72 220.8l-7.55-.53c-.82 6.9-1.39 11.56-1.46 14.01-.15 4.8.72 8.95 2.52 12.14 2.45-1.72 4.89-4.91 5.63-9.88.75-4.99.47-10.4.86-15.74z"/><path fill-rule="evenodd" clip-rule="evenodd" fill="#FFF" stroke="#000" stroke-width=".804" stroke-miterlimit="22.926" d="M59.65 212.67l-8.28-3.43c-1.41 5.59-3.32 23.98.07 31.75 2.76-1.87 5.54-5.38 6.46-10.91.94-5.56 1.22-11.47 1.75-17.41z"/><path fill-rule="evenodd" clip-rule="evenodd" fill="#FFF" stroke="#000" stroke-width=".776" stroke-linecap="round" stroke-linejoin="round" stroke-miterlimit="22.926" d="M48.71 203.55l-13.23 1.17c-3.05 7.58-5.04 14.29-6.01 20.38 6.13-1.09 10.58-4.09 12.18-9.59 2.15-7.4 5.93-10.65 7.06-11.96z"/><g fill-rule="evenodd" clip-rule="evenodd" fill="#F4C027" stroke="#000" stroke-miterlimit="22.926"><path stroke-width=".583" d="M62.12 403.64c5.05 4.04 9.67-5.2 5.19-17.42-3.31-9.04-19.52-5.53-10.49 6.63.43.58 1.03.31.95-.35-.51-2.49 1.08-3.94 3.54-3.48 6.71 1.25 6.92 13.98-.38 11.08-1.34-.09-.14 2.48 1.19 3.54zM78.7 403.64c-5.05 4.04-9.67-5.2-5.19-17.42 3.31-9.04 19.52-5.53 10.49 6.63-.43.58-1.03.31-.95-.35.51-2.49-1.08-3.94-3.54-3.48-6.71 1.25-6.92 13.98.38 11.08 1.33-.09.14 2.48-1.19 3.54z"/><path stroke-width=".844" d="M69.92 364.38v.08c-.66 2.12-3.11 4.77-5.02 6.76-2.96 3.08-2.26 7.75-.21 10.24 2.24 2.71 3.23 5.76 3.68 8.13.33 1.46.93 4.73.5 9.82-.22 2.5-1.73 3.8-3.15 4.92-.72.57.31 1.93 2.69 3.72.26.2.98.69 1.32 1.93.13.3 1.24.3 1.37 0 .34-1.24 1.06-1.73 1.32-1.93 2.39-1.79 3.41-3.15 2.69-3.72-1.42-1.12-2.94-2.41-3.15-4.92-.44-5.09.16-8.36.5-9.82.45-2.37 1.45-5.42 3.68-8.13 2.05-2.48 2.75-7.15-.21-10.24-1.91-1.99-4.36-4.64-5.02-6.76v-.08c-.03-.41-.26-.62-.49-.62-.24 0-.47.2-.5.62z"/><path stroke-width=".75" d="M66.76 393.7h7.3c1.26 0 2.29 1.01 2.29 2.24 0 1.23-1.03 2.24-2.29 2.24h-7.3c-1.26 0-2.29-1.01-2.29-2.24 0-1.23 1.03-2.24 2.29-2.24z"/></g><g fill-rule="evenodd" clip-rule="evenodd" fill="#F4C027" stroke="#000" stroke-miterlimit="22.926"><path stroke-width=".583" d="M165.3 403.64c5.05 4.04 9.67-5.2 5.19-17.42-3.31-9.04-19.52-5.53-10.49 6.63.43.58 1.03.31.95-.35-.51-2.49 1.08-3.94 3.54-3.48 6.71 1.25 6.92 13.98-.38 11.08-1.33-.09-.14 2.48 1.19 3.54zM181.88 403.64c-5.05 4.04-9.67-5.2-5.19-17.42 3.32-9.04 19.52-5.53 10.49 6.63-.43.58-1.03.31-.94-.35.51-2.49-1.08-3.94-3.54-3.48-6.71 1.25-6.92 13.98.38 11.08 1.33-.09.13 2.48-1.2 3.54z"/><path stroke-width=".844" d="M173.1 364.38v.08c-.66 2.12-3.11 4.77-5.02 6.76-2.96 3.08-2.26 7.75-.21 10.24 2.23 2.71 3.23 5.76 3.68 8.13.33 1.46.93 4.73.5 9.82-.21 2.5-1.73 3.8-3.15 4.92-.72.57.31 1.93 2.69 3.72.26.2.98.69 1.32 1.93.13.3 1.24.3 1.37 0 .34-1.24 1.06-1.73 1.32-1.93 2.39-1.79 3.41-3.15 2.69-3.72-1.42-1.12-2.94-2.41-3.15-4.92-.44-5.09.16-8.36.5-9.82.45-2.37 1.45-5.42 3.68-8.13 2.05-2.48 2.75-7.15-.21-10.24-1.91-1.99-4.36-4.64-5.02-6.76v-.08c-.03-.41-.26-.62-.49-.62s-.46.2-.5.62z"/><path stroke-width=".75" d="M169.94 393.7h7.3c1.26 0 2.29 1.01 2.29 2.24 0 1.23-1.03 2.24-2.29 2.24h-7.3c-1.26 0-2.29-1.01-2.29-2.24.01-1.23 1.04-2.24 2.29-2.24z"/></g><path fill-rule="evenodd" clip-rule="evenodd" fill="#FFF" stroke="#000" stroke-width=".77" stroke-miterlimit="22.926" d="M170.63 256.62c-.12 5.5.86 42.15 1.17 47.33.31 5.16 2.6 8.67 5.04 10.69 2.24-3.07 3.57-7.21 3.89-12.13.16-2.51-.3-37.19-.49-44.32-4.12-10.87-7.17-11.28-9.61-1.57z"/><path fill-rule="evenodd" clip-rule="evenodd" fill="#FFF" stroke="#000" stroke-width=".769" stroke-miterlimit="22.926" d="M194.5 247.66l1.56 50.39c.49 4.47-5.34 31.08-8.53 36.32-7.89-3.37-9.55-21.42-8.07-39 1.48-17.59-.25-32.78-1.45-35.94-.11-3.98.56-8.13.6-12.27 5.02.3 10.86.2 15.89.5z"/><path fill-rule="evenodd" clip-rule="evenodd" fill="#FFF" stroke="#000" stroke-width=".769" stroke-miterlimit="22.926" d="M203.84 255.9l-1.07 50.41c.26 4.49-6.95 30.74-10.41 35.8-8-6.2-6.39-31.54-5.17-39.21 2.44-15.28 2.03-32.98 1.18-35.85.1-3.98.21-8.74.46-12.88 5.01.58 10.01 1.16 15.01 1.73z"/><path fill-rule="evenodd" clip-rule="evenodd" fill="#FFF" stroke="#000" stroke-width=".769" stroke-miterlimit="22.926" d="M210.78 267.84l-13.27-.34c1.13 5.5.23 22.58-2.06 35.6-2.15 12.21-5.14 43.87 7.59 51.47 7.89-16.7 1.88-32.94 5.86-47.44 3.1-15.42 3.72-28.3 1.88-39.29zM160.06 247.37c.05 5.5 2.14 42.1 2.6 47.27.46 5.14 2.86 8.58 5.36 10.52 2.14-3.14 3.35-7.32 3.52-12.25.09-2.51-1.43-37.17-1.84-44.28-4.43-10.73-7.49-11.05-9.64-1.26z"/><path fill-rule="evenodd" clip-rule="evenodd" fill="#FFF" stroke="#000" stroke-width=".75" stroke-miterlimit="22.926" d="M183.63 217.51c.35 11.81.56 37.43.48 39.61-.17 4.92-2.11 11.19-4.26 14.33-2.5-1.94-4.89-5.38-5.36-10.52-.38-4.23-.51-25-.58-35.41 2.67-1.72 5.43-3.87 7.66-6.16.02 0 1.98-1.74 2.06-1.85z"/><path fill-rule="evenodd" clip-rule="evenodd" fill="#FFF" stroke="#000" stroke-width=".75" stroke-miterlimit="22.926" d="M174.15 225.13c.24 12.72.1 32.76.04 34.39-.17 4.92-1.38 9.11-3.52 12.25-2.5-1.94-5.14-5.5-5.6-10.64-.29-3.17-1.17-16.75-1.25-27.17 3.37-1.07 7.61-6.58 10.33-8.83z"/><path fill-rule="evenodd" clip-rule="evenodd" fill="#FFF" stroke="#000" stroke-width=".769" stroke-miterlimit="22.926" d="M182.31 216.45l9.03-13c1.83 6.41 4.05 52.41 1.44 56.18-.17 4.92-1.95 9.09-4.09 12.23-2.5-1.94-6.23-5.42-5.15-10.63s-.14-39.41-1.23-44.78z"/><path fill-rule="evenodd" clip-rule="evenodd" fill="#FFF" stroke="#000" stroke-width=".769" stroke-miterlimit="22.926" d="M200.83 245.38c.41 7.12.7 11.94.61 14.45-.17 4.92-1.38 9.11-3.52 12.25-2.5-1.94-5.68-5.37-5.36-10.52 1.26-19.92-.92-38.69-3.46-56.72 2.14-1.57 5.76-3.26 7.9-4.83 4.29 24.28 5.72 39.35 3.83 45.37z"/><path fill-rule="evenodd" clip-rule="evenodd" fill="#FFF" stroke="#000" stroke-width=".769" stroke-linejoin="round" stroke-miterlimit="22.926" d="M209.86 258.42l-2.45 9.26c-.17 4.92-3.21 8.99-5.36 12.13-2.5-1.94-4.77-5.12-4.13-10.25 3.67-29.42 2.36-48.89-3.83-72.86 13.99 9.53 20.47 29.63 15.77 61.72z"/><path fill-rule="evenodd" clip-rule="evenodd" fill="#FFF" stroke="#000" stroke-width=".769" stroke-miterlimit="22.926" d="M209.15 267.53l12.83-4.25c1.63 12.8-.88 28.89-4.33 50.1-2.97 18.21-1.41 32.62.86 41.87-13.69-1.87-19.47-19.49-12.61-52.62 1.79-8.67 3.59-19.76 3.25-35.1z"/><path clip-rule="evenodd" fill="none" stroke="#000" stroke-width=".75" stroke-linecap="round" stroke-miterlimit="22.926" d="M209.54 329.49c-.3-8.48 1.12-17.75 2.74-25.54 2.21-10.7 3.36-20.95 3.43-31.72"/><path fill-rule="evenodd" clip-rule="evenodd" fill="#FFF" stroke="#000" stroke-width=".765" stroke-linejoin="round" stroke-miterlimit="22.926" d="M209.66 192.2l-8.42 1.41c.41 1.8 2.55 12.86 2.94 14.75 3.15 15.37 5.22 33.48 2.84 53.35-.88 7.37-2.45 13.4-4.75 18.06 9.23-1.05 15.15-10.05 14.39-25.75 1.6-18.34.9-32.92-2.08-43.89-.86-3.22-3.66-15.33-4.92-17.93z"/><path fill-rule="evenodd" clip-rule="evenodd" fill="#FFF" stroke="#000" stroke-width=".765" stroke-miterlimit="22.926" d="M214.76 194.19l-4.13 4.71c1.17.84-.82 4.45.25 11.46.69 3.98 3.06 8.68 3.56 13.76 1.63 16.84 1.63 37.93-3.44 51.41 9.24-1.05 12.41-9.41 12.71-25.13.25-13 .29-28.32-2.98-46.01-.66-4.13-2.65-7.43-5.97-10.2z"/><path fill-rule="evenodd" clip-rule="evenodd" fill="#FFF" stroke="#000" stroke-width=".777" stroke-miterlimit="22.926" d="M191.69 206.59l8.52-.99c1.57 8.04 2.76 13.73 3.05 16.6.57 5.62-1.14 10.77-3.09 14.61-3.14-1.89-4.6-6.02-5.92-11.82-1.32-5.82-1.65-12.16-2.56-18.4z"/><path fill-rule="evenodd" clip-rule="evenodd" fill="#FFF" stroke="#000" stroke-width=".804" stroke-miterlimit="22.926" d="M169.57 224.7l7.56.08c.26 6.94.45 11.64.32 14.08-.24 4.8-1.44 8.86-3.49 11.9-2.3-1.91-4.47-5.29-4.81-10.31-.34-5.03.38-10.39.42-15.75z"/><path fill-rule="evenodd" clip-rule="evenodd" fill="#FFF" stroke="#000" stroke-width=".804" stroke-miterlimit="22.926" d="M161.43 228.28l7.56.34c.02 6.95.04 11.65-.17 14.09-.41 4.79-1.75 8.81-3.91 11.77-2.23-1.99-4.28-5.44-4.45-10.47-.17-5.04.74-10.37.97-15.73zM177.28 220.8l7.55-.53c.82 6.9 1.39 11.56 1.46 14.01.15 4.8-.72 8.95-2.52 12.14-2.45-1.72-4.89-4.91-5.63-9.88-.75-4.99-.47-10.4-.86-15.74z"/><path fill-rule="evenodd" clip-rule="evenodd" fill="#FFF" stroke="#000" stroke-width=".804" stroke-miterlimit="22.926" d="M184.35 212.67l8.28-3.43c1.41 5.59 3.32 23.98-.07 31.75-2.76-1.87-5.54-5.38-6.46-10.91-.94-5.56-1.22-11.47-1.75-17.41z"/><path fill-rule="evenodd" clip-rule="evenodd" fill="#FFF" stroke="#000" stroke-width=".776" stroke-linecap="round" stroke-linejoin="round" stroke-miterlimit="22.926" d="M195.29 203.55l13.23 1.17c3.05 7.58 5.04 14.29 6.01 20.38-6.13-1.09-10.58-4.09-12.18-9.59-2.15-7.4-5.93-10.65-7.06-11.96z"/><path fill-rule="evenodd" clip-rule="evenodd" fill="#FFF" stroke="#000" stroke-width=".75" stroke-linejoin="round" stroke-miterlimit="22.926" d="M156.4 222.36c1.01-.21 2.04-.5 3.08-.87-4.84-3.03-8.86-6.7-13.63-14.01-4.89-7.49 2.14-20.87 5.03-27.96 6.02-4.46 11.7-11 13.5-19.64.71-4.64-12.11-2.97-20.93 1.19-10.78 5.08-12.25 3.68-16.09 4.54-1.37 6.6 1.49 7.16 4.25 6.83-5.94 9.52-8.42 18.99-9.61 32.61-1.18-13.62-3.67-23.09-9.61-32.61 2.75.32 5.61-.23 4.25-6.83-3.84-.86-5.31.55-16.09-4.54-8.82-4.16-21.65-5.84-20.93-1.19 1.8 8.63 7.48 15.18 13.5 19.64 2.88 7.1 9.92 20.47 5.03 27.96-4.77 7.31-8.79 10.98-13.63 14.01 1.05.37 2.07.66 3.08.87-.73 1-7.01 2.95-7.75 2.43-4.8-3.4-9.49-11.37-13.57-16-11.57-13.12-17.35-23.24-15.31-31.41 2.91-8.79 13.28-18.66-.46-16.96-13.74 1.71-25.12 20.53-28.78 43.18-1.36 8.41-2.14 15.44-3.06 21.2 7.5-2.67 10.82-5.34 12.81-8.63-.9 3.12-1.57 6.09-2.02 8.92 6.13-1.09 10.58-4.09 12.18-9.59.65-2.22 1.44-4.07 2.26-5.61 1.88.67 4.33.63 7.3-.1 1.13 2.69 9.58 12.1 14.12 19.01 5.13 7.8 12.83 13.77 15.37 14.09 1.27.16 1.66-2.66 1.38-6.54 13.4.1 26.79.17 39.92-.27 13.13.45 26.52.37 39.92.27-.28 3.88.11 6.7 1.38 6.54 2.54-.33 10.24-6.29 15.37-14.09 4.54-6.91 12.99-16.31 14.12-19.01 2.97.73 5.42.77 7.3.1.82 1.53 1.62 3.38 2.26 5.61 1.59 5.49 6.04 8.5 12.18 9.59-.45-2.83-1.12-5.8-2.02-8.92 1.99 3.29 5.32 5.95 12.81 8.63-.92-5.76-1.7-12.79-3.06-21.2-3.66-22.65-15.04-41.48-28.78-43.18-13.74-1.71-3.37 8.17-.46 16.96 2.04 8.17-3.73 18.29-15.31 31.41-4.08 4.63-8.77 12.6-13.57 16-.72.52-7-1.43-7.73-2.43z"/><path fill-rule="evenodd" clip-rule="evenodd" fill="#F4C027" stroke="#000" stroke-width=".75" stroke-linejoin="round" stroke-miterlimit="22.926" d="M148.37 185.56c1.29 1.13 5.55 1.14 11.39 1.52 9.4.33 14.84-2.5 16.05-8.51-3.53 4.2-7.73 6.27-12.51 5.09-6.45-1.59-10.13-2.74-11.61-2.46-.99.36-2.44 2.15-3.32 4.36z"/><path fill-rule="evenodd" clip-rule="evenodd" fill="#F4C027" stroke="#000" stroke-width=".766" stroke-miterlimit="22.926" d="M170.36 160.87c10.54 1.14 10.04 8.02.18 17.76-1.89 1.86-2.53 1.8-2.94-.13-.7-3.38-4.45-5.38-6.42-2.8-1.34 1.76-1.04 2.76-5.5 2.14-5.64 4.72-10.23 8.04-2.85 7.77 3.25-.12 5.75 1.77 9.98 1.6-1.25 2.43-1.48 2.71-2.15 2.91-4.1.81-8.42-1.75-12.56-.99-9.06 1.67 14.52-24.46 14.23-25.5-.74-2.64 5.67-7.35 8.03-2.76z"/><path clip-rule="evenodd" fill="none" stroke="#000" stroke-width=".796" stroke-linecap="round" stroke-miterlimit="22.926" d="M170.12 160.64c-.87 2.48-2.54 4.76-5 6.84"/><path fill-rule="evenodd" clip-rule="evenodd" d="M172.36 165.7c-.07-.48-.52-.82-1-.77s-.82.48-.76.95c.07.48.52.82 1 .77.49-.05.83-.48.76-.95z"/><path clip-rule="evenodd" fill="none" stroke="#000" stroke-linecap="round" stroke-miterlimit="22.926" d="M82.3 163.51c2.83-.15 5.73 1.09 9.49 2.45 1.06.39 4.74 1.84 5.87 1.67"/><path clip-rule="evenodd" fill="none" stroke="#000" stroke-width=".75" stroke-linecap="round" stroke-miterlimit="22.926" d="M112.56 172.49c-3.08-.5-4.77-.9-6.22-1.3"/><path clip-rule="evenodd" fill="none" stroke="#000" stroke-miterlimit="22.926" d="M84.55 163.71c1.19 2.18 2.6 5.13 5.1 6.53 1.89 1.06 3.98-.61 5.51-3.47"/><path fill-rule="evenodd" clip-rule="evenodd" d="M88.66 169.19l-1.39-1.39c-.68-.85-.29-1.99 1.18-3.42 1.07.46 1.92.82 2.78 1.18-.58 1.92-1.43 3.13-2.57 3.63z"/><path clip-rule="evenodd" fill="none" stroke="#000" stroke-miterlimit="22.926" d="M159.45 163.71c-1.19 2.18-2.6 5.13-5.1 6.53-1.89 1.06-3.98-.61-5.51-3.47"/><path fill-rule="evenodd" clip-rule="evenodd" d="M155.34 169.19l1.39-1.39c.68-.85.29-1.99-1.18-3.42-1.07.46-1.92.82-2.78 1.18.58 1.92 1.43 3.13 2.57 3.63z"/><path clip-rule="evenodd" fill="none" stroke="#000" stroke-linecap="round" stroke-miterlimit="22.926" d="M161.7 163.51c-2.83-.15-5.73 1.09-9.49 2.45-1.06.39-4.75 1.84-5.87 1.67"/><path clip-rule="evenodd" fill="none" stroke="#000" stroke-width=".75" stroke-linecap="round" stroke-miterlimit="22.926" d="M131.44 172.49c3.08-.5 4.77-.9 6.22-1.3"/><g clip-rule="evenodd" fill="none" stroke="#000" stroke-width=".75" stroke-linecap="round" stroke-linejoin="round" stroke-miterlimit="22.926"><path d="M84.52 221.49c6.01 2.11 11.45 1.69 15.53-2.32.64-.63 1.26-1.24 1.83-1.82"/><path d="M102.62 213.7c-.56 4.05-1.6 7.29-3.03 10.5 4.24-1.1 7.59-3.05 9.64-5.98M121.93 226.13c-3.31-4.02-5.34-8.66-5.57-13.86"/><path d="M108.39 213.09c.37 4.06 1.53 7.53 3.41 10.22 2.04-1.54 4.02-4.07 4.92-7.68M159.48 221.49c-6.02 2.11-11.45 1.69-15.53-2.32-.65-.63-1.26-1.24-1.83-1.82"/><path d="M141.38 213.7c.56 4.05 1.6 7.29 3.03 10.5-4.24-1.1-7.59-3.05-9.64-5.98"/><path d="M135.61 213.09c-.37 4.06-1.53 7.53-3.41 10.22-2.04-1.54-4.02-4.07-4.92-7.68M122.07 226.13c3.31-4.02 5.34-8.66 5.57-13.86"/></g><path clip-rule="evenodd" fill="none" stroke="#000" stroke-width=".765" stroke-linecap="round" stroke-miterlimit="22.926" d="M43.73 189.53c-4.77 3.41-13.56 28.05-14.23 35.28-1.56 16.72-1.5 37.43 3.5 50.72M200.27 189.53c4.77 3.41 13.56 28.05 14.23 35.28 1.56 16.72 1.5 37.43-3.5 50.72"/><path fill-rule="evenodd" clip-rule="evenodd" fill="#F4C027" stroke="#000" stroke-width=".766" stroke-linejoin="round" stroke-miterlimit="22.926" d="M73.64 160.87c-10.54 1.14-10.04 8.02-.18 17.76 1.89 1.86 2.53 1.8 2.94-.13.7-3.38 4.45-5.38 6.42-2.8 1.34 1.76 1.04 2.76 5.5 2.14 5.64 4.72 10.23 8.04 2.85 7.77-3.25-.12-5.75 1.77-9.98 1.6 1.25 2.43 1.48 2.71 2.15 2.91 4.1.81 8.42-1.75 12.56-.99 9.06 1.67-14.52-24.46-14.23-25.5.74-2.64-5.67-7.35-8.03-2.76z"/><path clip-rule="evenodd" fill="none" stroke="#000" stroke-width=".796" stroke-linecap="round" stroke-miterlimit="22.926" d="M73.88 160.64c.87 2.48 2.54 4.76 5 6.84"/><path fill-rule="evenodd" clip-rule="evenodd" d="M71.64 165.7c.07-.48.52-.82 1-.77s.82.48.76.95c-.07.48-.52.82-1 .77-.49-.05-.83-.48-.76-.95z"/><g fill-rule="evenodd" clip-rule="evenodd" fill="#FFF" stroke="#000" stroke-width=".75" stroke-miterlimit="22.926"><path stroke-linejoin="round" d="M80.76 326.41l.24-6.91c-2.78-1.41-9.63.04-12.52 6.42-3.6 7.95-7.01 12.19-11.34 15.92 6.27 1.17 11.58-.07 15-4.66 4.62-6.19 7.08-9.94 8.62-10.77z"/><path d="M85.85 327.31l-7.48-3.14c-3.07 6.24-5.15 10.46-6.02 12.75-1.7 4.49-2.17 8.72-1.38 12.37 3.04-.77 6.54-2.93 8.91-7.38 2.38-4.46 3.84-9.68 5.97-14.6z"/><path d="M88 327.31l-8.02-1.22c-1.45 6.8-2.44 11.4-2.73 13.83-.56 4.77.02 8.98 1.68 12.33 2.76-1.49 5.63-4.44 6.84-9.33 1.22-4.91 1.37-10.32 2.23-15.61z"/><path stroke-linejoin="round" d="M89.19 316.41l4.78-.04c2.79 1.38 5.72 7.74 2.34 13.87-4.22 7.64-5.58 12.91-5.99 18.6-4.68-4.33-6.86-9.32-5.23-14.81 2.21-7.39 4.35-15.89 4.1-17.62z"/><path d="M91.32 313.08l-7.65-2.71c-2.7 6.4-4.54 10.73-5.28 13.07-1.44 4.58-1.67 8.83-.67 12.43 2.99-.95 6.77-2.9 8.88-7.47 2.13-4.59 2.88-10.28 4.72-15.32z"/><path stroke-linejoin="round" d="M86.13 307.75l-1.68-10.39c-1.76-.48-4.09 3.63-6.38 6.02-.53.55-1.13 1.07-1.59 1.75-.96 1.42-1.74 3.12-2.17 5.04-1.91 8.52-4.69 12.95-8.17 17.49 6.37-.13 11.32-2.42 13.74-7.61 3.26-7 4.92-11.17 6.25-12.3z"/></g><g clip-rule="evenodd" stroke="#000" stroke-miterlimit="22.926"><path fill-rule="evenodd" fill="#F4C027" stroke-width=".771" stroke-linejoin="round" d="M166.42 329.78c2.03.09 4.52 1.25 11.8 7.56 3.18 6.48 6.38 13 10.8 18.63 1.51 1 2.69 1.69 3.88 2.08 1.25.41 10.43.11 10.65-.28 2.86-2.59 7.22-.74 5.76 1.99 1.13 1.07-1.36 5-3.36 3.37-1.84-1.49-8.24-.08-10.37-.86.81 1.92 6.59 3.17 10.63 3.46 3.69.16 3.45 3.84 1.92 6.67-1.73 1.1-.31-.29-.94.52-1.65 2.45-5.19 2.13-5.31-.26-.12-2.48-8.75-5.71-10.04-7.61 1.58 3.76 5.23 7.28 7.04 10.96 1.94 1.95 3.13 2.34.61 6.28-2.79-.32-2.95-1.06-4.67.56-3.81-.42-4.43-1.55-3.81-4.57.65-3.19-2.02-8.95-2.9-10.58-.82-1.5-1.02-3.06-1.82-4-1.38-1.64-7.97-4.91-9.66-4.01-3.11 1.65-5.48.65-5.87-2.35 1-.77.25-5.05 2.4-5.23 1.76-.15 2.8.39 4.41 1.71 2.54 2.08 3.85 3.18 4.69 2.95 1.98-.55-3.59-3.28-8.67-9.93-7.02-9.22-7.5-13.9-7.17-17.06z"/><path fill-rule="evenodd" fill="#F4C027" stroke-width=".757" d="M208.89 361.45c2.55-1.49 4.01-1.43 5-.32.54.61 1.24.29.83-.66-1.69-4-4.39-4.5-6.81-2.62-.68.63-1.22 1.17-1.77 1.7.4.6 2.42 1.44 2.75 1.9z"/><path fill-rule="evenodd" fill="#F4C027" stroke-width=".752" d="M172.44 357.88c-2.7-1.84-5.23-2.2-6.62-1.16-.76.57-1.52.16-.85-.78 2.8-3.94 6.09-4.14 8.56-1.92.67.73 1.21 1.35 1.74 1.97-.84.92-2.71 1.97-2.83 1.89z"/><path fill-rule="evenodd" fill="#F4C027" stroke-width=".75" d="M193.72 380.46c1.66 3.28 2.53 5.52 1.81 7.28-.42 1.03.06 1.97 1.1 1.08 4.22-3.62 4.23-7.77 1.53-10.59-.9-.94-1.87-1.55-2.72-2.23-1.1 1.01-1.8 4.3-1.72 4.46z"/><path fill-rule="evenodd" fill="#F4C027" stroke-width=".866" d="M204.26 371.83c2.51 1.04 3.38 2.36 3.28 4.09-.05.95.58 1.31.93.2 3.07-7.12-.11-8.45-4.71-8.19-.26 1.24.39 3.86.5 3.9z"/><path fill="none" stroke-width=".75" d="M182.65 355.98c1.65-.96 1.75-2.03 1.32-2.74-.92-1.52-1.84-.79-3.57.62"/><path fill="none" stroke-width=".75" d="M180.51 353.65c1.65-.96 1.75-2.03 1.32-2.74-.92-1.52-1.84-.79-3.57.61"/><path fill="none" stroke-width=".838" d="M178.11 351.45c1.82-1.25 1.93-2.64 1.45-3.57-1.01-1.98-2.03-1.02-3.94.8"/><path fill="none" stroke-width=".877" d="M175.52 348.67c1.93-1.41 2.05-2.98 1.54-4.03-1.07-2.23-2.15-1.16-4.18.9"/><path fill="none" stroke-width=".899" d="M172.79 345.72c1.8-1.5 2.37-2.98 1.54-4.29-1.29-2.04-2.15-1.23-4.18.96"/></g><g fill-rule="evenodd" clip-rule="evenodd" fill="#FFF" stroke="#000" stroke-width=".75" stroke-miterlimit="22.926"><path stroke-linejoin="round" d="M163.24 326.41l-.24-6.91c2.78-1.41 9.63.04 12.52 6.42 3.6 7.95 7.01 12.19 11.34 15.92-6.27 1.17-11.58-.07-15-4.66-4.62-6.19-7.08-9.94-8.62-10.77z"/><path d="M158.15 327.31l7.48-3.14c3.07 6.24 5.15 10.46 6.02 12.75 1.7 4.49 2.17 8.72 1.38 12.37-3.04-.77-6.54-2.93-8.91-7.38-2.38-4.46-3.84-9.68-5.97-14.6z"/><path d="M156 327.31l8.02-1.22c1.45 6.8 2.44 11.4 2.73 13.83.56 4.77-.02 8.98-1.68 12.33-2.76-1.49-5.63-4.44-6.84-9.33-1.22-4.91-1.37-10.32-2.23-15.61z"/><path stroke-linejoin="round" d="M154.81 316.41l-4.78-.04c-2.79 1.38-5.72 7.74-2.34 13.87 4.22 7.64 5.58 12.91 5.99 18.6 4.68-4.33 6.86-9.32 5.23-14.81-2.21-7.39-4.35-15.89-4.1-17.62z"/><path d="M152.68 313.08l7.65-2.71c2.7 6.4 4.54 10.73 5.28 13.07 1.44 4.58 1.67 8.83.67 12.43-2.99-.95-6.77-2.9-8.88-7.47-2.13-4.59-2.88-10.28-4.72-15.32z"/><path stroke-linejoin="round" d="M157.87 307.75l1.68-10.39c1.76-.48 4.09 3.63 6.37 6.02.53.55 1.13 1.07 1.59 1.75.96 1.42 1.74 3.12 2.17 5.04 1.91 8.52 4.69 12.95 8.17 17.49-6.37-.13-11.32-2.42-13.74-7.61-3.25-7-4.91-11.17-6.24-12.3z"/></g><g stroke="#000" stroke-miterlimit="22.926"><path fill="#D93A43" stroke-width="1.428" d="M164.52 226.89v68.74c0 12.29-4.78 23.45-12.48 31.54s-18.33 13.1-30.04 13.1-22.34-5.01-30.04-13.1c-7.7-8.09-12.48-19.25-12.48-31.54v-68.74h85.04z"/><path fill="#FFF" stroke-width=".75" d="M164.52 269.05v17.72h-33.66v52.52c-2.86.64-5.82.98-8.86.98-3.04 0-6-.34-8.86-.98v-52.52H79.48v-17.72h33.66v-42.17h17.72v42.17h33.66z"/><path fill-rule="evenodd" clip-rule="evenodd" fill="#FFF" stroke-width=".796" stroke-linejoin="round" d="M107.4 236.93v24.91c-5.43 1.46-18.65 6.72-19.34-4.82-.32-5.34 6.62-8.86 8.49-4.14.89 2.23-.08 3.81-1.38 4.32-1.41.55-2.81-.59-2.43-2.29-5.62 2.94 5.02 9.17 9.83 1.06 1.4-2.36-2.36-4.83-2.37-6.58 0-1.75 3.7-4.38 2.37-6.58-4.87-8.08-15.45-1.88-9.83 1.06-.37-1.7 1.02-2.84 2.43-2.29 1.3.51 2.27 2.09 1.38 4.32-1.87 4.71-8.81 1.19-8.49-4.14.69-11.55 13.91-6.28 19.34-4.83z"/><path fill-rule="evenodd" clip-rule="evenodd" fill="#FFF" stroke-width=".791" stroke-linejoin="round" d="M136.6 236.93v24.91c5.43 1.46 18.65 6.72 19.34-4.82.32-5.34-6.62-8.86-8.49-4.14-.89 2.23.08 3.81 1.38 4.32 1.41.55 2.81-.59 2.43-2.29 5.62 2.94-5.02 9.17-9.83 1.06-1.4-2.36 2.36-4.83 2.37-6.58 0-1.75-3.7-4.38-2.37-6.58 4.87-8.08 15.45-1.88 9.83 1.06.37-1.7-1.02-2.84-2.43-2.29-1.3.51-2.27 2.09-1.38 4.32 1.87 4.71 8.81 1.19 8.49-4.14-.69-11.55-13.91-6.28-19.34-4.83zM107.4 318.89v-24.91c-5.43-1.46-18.65-6.72-19.34 4.82-.32 5.34 6.62 8.86 8.49 4.14.89-2.23-.08-3.81-1.38-4.32-1.41-.55-2.81.59-2.43 2.29-5.62-2.94 5.02-9.17 9.83-1.06 1.4 2.36-2.36 4.83-2.37 6.58 0 1.75 3.7 4.38 2.37 6.58-4.87 8.08-15.45 1.88-9.83-1.06-.37 1.7 1.02 2.84 2.43 2.29 1.3-.51 2.27-2.09 1.38-4.32-1.87-4.71-8.81-1.19-8.49 4.14.69 11.55 13.91 6.29 19.34 4.83zM136.6 318.89v-24.91c5.43-1.46 18.65-6.72 19.34 4.82.32 5.34-6.62 8.86-8.49 4.14-.89-2.23.08-3.81 1.38-4.32 1.41-.55 2.81.59 2.43 2.29 5.62-2.94-5.02-9.17-9.83-1.06-1.4 2.36 2.36 4.83 2.37 6.58 0 1.75-3.7 4.38-2.37 6.58 4.87 8.08 15.45 1.88 9.83-1.06.37 1.7-1.02 2.84-2.43 2.29-1.3-.51-2.27-2.09-1.38-4.32 1.87-4.71 8.81-1.19 8.49 4.14-.69 11.55-13.91 6.29-19.34 4.83z"/><path fill="none" stroke-width="1.428" d="M164.52 226.89v68.74c0 12.29-4.78 23.45-12.48 31.54s-18.33 13.1-30.04 13.1-22.34-5.01-30.04-13.1c-7.7-8.09-12.48-19.25-12.48-31.54v-68.74h85.04z"/></g></svg>